<svg xmlns="http://www.w3.org/2000/svg" xmlns:xlink="http://www.w3.org/1999/xlink" width="500" zoomAndPan="magnify" viewBox="0 0 375 374.999991" height="500" preserveAspectRatio="xMidYMid meet" version="1.0"><path fill="#593a23" d="M 282.722656 115.152344 L 283.371094 115.074219 C 283.285156 114.234375 283.039062 113.445312 282.628906 112.703125 C 282.222656 111.964844 281.6875 111.332031 281.019531 110.8125 C 280.257812 110.257812 279.414062 109.878906 278.492188 109.671875 C 277.570312 109.46875 276.644531 109.453125 275.71875 109.628906 C 275.328125 109.703125 274.945312 109.800781 274.570312 109.925781 C 250.058594 118.699219 222.277344 128.644531 200.882812 148.296875 C 180.511719 166.988281 170.410156 191.871094 173.828125 214.863281 C 174.226562 217.828125 174.855469 220.746094 175.714844 223.617188 C 176.570312 226.484375 177.648438 229.269531 178.941406 231.96875 C 180.234375 234.667969 181.730469 237.253906 183.429688 239.71875 C 185.125 242.183594 187.003906 244.503906 189.066406 246.675781 C 184.402344 253.933594 179.710938 261.179688 175 268.40625 C 152.4375 234.363281 130.367188 199.730469 109.382812 165.46875 C 109.066406 164.957031 108.695312 164.496094 108.257812 164.085938 C 107.824219 163.671875 107.34375 163.320312 106.816406 163.035156 C 106.289062 162.75 105.734375 162.535156 105.148438 162.394531 C 104.566406 162.253906 103.976562 162.191406 103.375 162.207031 C 102.773438 162.210938 102.179688 162.292969 101.59375 162.453125 C 101.011719 162.609375 100.460938 162.839844 99.9375 163.140625 C 99.414062 163.441406 98.9375 163.804688 98.507812 164.230469 C 98.078125 164.65625 97.707031 165.128906 97.402344 165.648438 C 97.160156 166.097656 96.980469 166.574219 96.871094 167.070312 C 96.757812 167.570312 96.714844 168.074219 96.742188 168.585938 C 96.769531 169.097656 96.863281 169.59375 97.027344 170.078125 C 97.191406 170.5625 97.417969 171.015625 97.703125 171.441406 C 120.847656 209.226562 145.027344 247.070312 169.585938 283.917969 C 170.035156 284.65625 170.621094 285.257812 171.347656 285.726562 C 172.074219 286.191406 172.863281 286.476562 173.722656 286.578125 C 174.320312 286.78125 174.933594 286.882812 175.566406 286.886719 C 176.546875 286.867188 177.460938 286.613281 178.3125 286.121094 C 179.164062 285.632812 179.84375 284.96875 180.355469 284.132812 C 186.558594 274.667969 193.097656 264.578125 200.332031 253.316406 C 203.191406 254.160156 206.097656 254.773438 209.054688 255.160156 C 212.007812 255.546875 214.976562 255.703125 217.953125 255.628906 C 220.933594 255.554688 223.890625 255.253906 226.820312 254.71875 C 229.753906 254.183594 232.625 253.425781 235.441406 252.445312 C 257.484375 245.078125 275.09375 224.765625 282.546875 198.179688 C 290.378906 170.207031 286.671875 140.9375 283.402344 115.136719 Z M 264.855469 208.183594 C 255.292969 228.550781 232.125 247.046875 207.675781 241.71875 C 222.964844 217.691406 237.664062 193.933594 251.402344 171.148438 C 251.683594 170.722656 251.90625 170.265625 252.066406 169.78125 C 252.226562 169.292969 252.316406 168.796875 252.339844 168.285156 C 252.363281 167.773438 252.320312 167.269531 252.207031 166.773438 C 252.089844 166.273438 251.910156 165.800781 251.667969 165.351562 C 251.355469 164.832031 250.984375 164.363281 250.550781 163.941406 C 250.117188 163.519531 249.636719 163.160156 249.113281 162.863281 C 248.585938 162.566406 248.03125 162.339844 247.449219 162.183594 C 246.863281 162.03125 246.269531 161.953125 245.667969 161.949219 C 245.066406 161.925781 244.472656 161.984375 243.886719 162.125 C 243.300781 162.265625 242.742188 162.480469 242.21875 162.769531 C 241.691406 163.0625 241.210938 163.417969 240.78125 163.839844 C 240.351562 164.261719 239.988281 164.734375 239.6875 165.257812 C 226.144531 187.714844 211.5625 211.265625 196.335938 235.210938 C 180.03125 215.855469 185.9375 186.558594 199.941406 168.582031 C 217.484375 146.082031 244.800781 134.691406 271.390625 125.023438 C 274.777344 152.980469 276.972656 182.375 264.855469 208.183594 Z M 370.070312 183.910156 C 369.921875 180.996094 369.699219 178.085938 369.410156 175.183594 C 369.117188 172.277344 368.757812 169.382812 368.324219 166.496094 C 367.890625 163.609375 367.386719 160.734375 366.808594 157.875 C 366.234375 155.011719 365.589844 152.164062 364.875 149.335938 C 364.164062 146.503906 363.378906 143.695312 362.527344 140.902344 C 361.675781 138.109375 360.753906 135.339844 359.765625 132.59375 C 358.777344 129.847656 357.722656 127.128906 356.601562 124.433594 C 355.476562 121.738281 354.289062 119.070312 353.039062 116.433594 C 351.785156 113.796875 350.46875 111.195312 349.085938 108.621094 C 347.707031 106.050781 346.265625 103.515625 344.757812 101.011719 C 343.253906 98.511719 341.6875 96.050781 340.0625 93.625 C 338.4375 91.203125 336.75 88.820312 335.007812 86.476562 C 333.265625 84.136719 331.464844 81.839844 329.609375 79.585938 C 327.753906 77.332031 325.84375 75.125 323.878906 72.96875 C 321.914062 70.808594 319.898438 68.699219 317.832031 66.636719 C 315.765625 64.578125 313.648438 62.570312 311.480469 60.613281 C 309.3125 58.65625 307.101562 56.753906 304.839844 54.90625 C 302.582031 53.058594 300.277344 51.269531 297.929688 49.535156 C 295.582031 47.796875 293.195312 46.121094 290.761719 44.503906 C 288.332031 42.886719 285.867188 41.332031 283.359375 39.835938 C 280.851562 38.339844 278.3125 36.90625 275.734375 35.535156 C 273.15625 34.164062 270.546875 32.855469 267.90625 31.613281 C 265.265625 30.367188 262.597656 29.191406 259.898438 28.078125 C 257.199219 26.964844 254.472656 25.921875 251.722656 24.941406 C 248.972656 23.964844 246.203125 23.054688 243.40625 22.210938 C 240.613281 21.371094 237.796875 20.597656 234.964844 19.890625 C 232.132812 19.1875 229.285156 18.554688 226.421875 17.988281 C 223.554688 17.425781 220.679688 16.933594 217.792969 16.507812 C 214.902344 16.085938 212.007812 15.734375 209.101562 15.453125 C 206.195312 15.171875 203.285156 14.960938 200.371094 14.824219 C 197.453125 14.6875 194.535156 14.621094 191.617188 14.625 C 188.699219 14.628906 185.78125 14.707031 182.867188 14.855469 C 179.949219 15.003906 177.042969 15.226562 174.136719 15.515625 C 171.230469 15.808594 168.335938 16.167969 165.449219 16.601562 C 162.5625 17.035156 159.6875 17.539062 156.828125 18.117188 C 153.964844 18.691406 151.121094 19.335938 148.289062 20.050781 C 145.457031 20.761719 142.648438 21.546875 139.855469 22.398438 C 137.0625 23.25 134.296875 24.171875 131.546875 25.160156 C 128.800781 26.148438 126.082031 27.203125 123.386719 28.324219 C 120.691406 29.449219 118.027344 30.636719 115.390625 31.886719 C 112.753906 33.140625 110.148438 34.457031 107.578125 35.839844 C 105.003906 37.21875 102.46875 38.660156 99.96875 40.167969 C 97.46875 41.671875 95.003906 43.238281 92.582031 44.863281 C 90.15625 46.492188 87.773438 48.175781 85.433594 49.917969 C 83.089844 51.660156 80.792969 53.460938 78.539062 55.316406 C 76.289062 57.171875 74.082031 59.082031 71.921875 61.046875 C 69.761719 63.011719 67.652344 65.027344 65.59375 67.09375 C 63.53125 69.164062 61.523438 71.28125 59.566406 73.445312 C 57.609375 75.613281 55.710938 77.824219 53.863281 80.085938 C 52.011719 82.34375 50.222656 84.648438 48.488281 86.996094 C 46.753906 89.34375 45.078125 91.734375 43.460938 94.164062 C 41.84375 96.59375 40.285156 99.0625 38.789062 101.566406 C 37.292969 104.074219 35.859375 106.617188 34.488281 109.191406 C 33.117188 111.769531 31.808594 114.378906 30.566406 117.019531 C 29.324219 119.660156 28.144531 122.332031 27.035156 125.027344 C 25.921875 127.726562 24.875 130.453125 23.898438 133.203125 C 22.917969 135.953125 22.007812 138.726562 21.167969 141.519531 C 20.324219 144.316406 19.550781 147.128906 18.847656 149.960938 C 18.144531 152.792969 17.507812 155.640625 16.945312 158.507812 C 16.378906 161.371094 15.886719 164.246094 15.464844 167.132812 C 15.039062 170.023438 14.6875 172.917969 14.40625 175.824219 C 14.128906 178.730469 13.917969 181.640625 13.78125 184.558594 C 13.640625 187.472656 13.574219 190.390625 13.582031 193.308594 C 13.585938 196.226562 13.664062 199.144531 13.8125 202.058594 C 13.960938 204.976562 14.179688 207.886719 14.472656 210.789062 C 14.761719 213.695312 15.125 216.589844 15.558594 219.476562 C 15.992188 222.363281 16.496094 225.238281 17.070312 228.097656 C 17.644531 230.960938 18.289062 233.808594 19.003906 236.636719 C 19.71875 239.46875 20.503906 242.277344 21.355469 245.070312 C 22.207031 247.863281 23.128906 250.632812 24.117188 253.378906 C 25.105469 256.125 26.160156 258.84375 27.28125 261.539062 C 28.402344 264.234375 29.589844 266.898438 30.84375 269.535156 C 32.097656 272.171875 33.414062 274.777344 34.792969 277.347656 C 36.175781 279.921875 37.617188 282.457031 39.121094 284.957031 C 40.628906 287.460938 42.195312 289.921875 43.820312 292.347656 C 45.445312 294.769531 47.128906 297.152344 48.875 299.496094 C 50.617188 301.835938 52.417969 304.132812 54.273438 306.386719 C 56.128906 308.640625 58.039062 310.84375 60.003906 313.003906 C 61.964844 315.164062 63.984375 317.273438 66.050781 319.332031 C 68.117188 321.394531 70.234375 323.402344 72.402344 325.359375 C 74.566406 327.316406 76.78125 329.21875 79.042969 331.066406 C 81.300781 332.914062 83.605469 334.703125 85.953125 336.4375 C 88.300781 338.171875 90.6875 339.847656 93.117188 341.464844 C 95.550781 343.082031 98.015625 344.640625 100.523438 346.136719 C 103.03125 347.632812 105.570312 349.066406 108.148438 350.4375 C 110.726562 351.808594 113.335938 353.117188 115.976562 354.359375 C 118.617188 355.601562 121.285156 356.78125 123.984375 357.890625 C 126.683594 359.003906 129.410156 360.050781 132.160156 361.027344 C 134.910156 362.007812 137.679688 362.917969 140.476562 363.757812 C 143.269531 364.601562 146.085938 365.375 148.917969 366.078125 C 151.75 366.78125 154.597656 367.417969 157.460938 367.980469 C 160.328125 368.546875 163.203125 369.039062 166.089844 369.460938 C 168.980469 369.886719 171.875 370.238281 174.78125 370.519531 C 177.6875 370.796875 180.597656 371.007812 183.511719 371.144531 C 186.429688 371.285156 189.347656 371.351562 192.265625 371.34375 C 195.183594 371.339844 198.101562 371.261719 201.015625 371.113281 C 203.929688 370.960938 206.839844 370.738281 209.742188 370.445312 C 212.644531 370.152344 215.539062 369.785156 218.425781 369.347656 C 221.3125 368.914062 224.183594 368.40625 227.042969 367.828125 C 229.90625 367.253906 232.75 366.605469 235.578125 365.890625 C 238.40625 365.171875 241.214844 364.386719 244.007812 363.53125 C 246.796875 362.679688 249.5625 361.757812 252.308594 360.765625 C 255.054688 359.777344 257.773438 358.71875 260.464844 357.597656 C 263.160156 356.472656 265.824219 355.285156 268.457031 354.03125 C 271.09375 352.777344 273.695312 351.457031 276.265625 350.078125 C 278.835938 348.695312 281.371094 347.253906 283.871094 345.746094 C 286.371094 344.242188 288.832031 342.675781 291.253906 341.046875 C 293.679688 339.421875 296.058594 337.738281 298.398438 335.992188 C 300.738281 334.25 303.035156 332.449219 305.289062 330.59375 C 307.539062 328.738281 309.746094 326.828125 311.902344 324.867188 C 314.0625 322.902344 316.171875 320.886719 318.230469 318.820312 C 320.289062 316.75 322.296875 314.636719 324.253906 312.46875 C 326.207031 310.304688 328.109375 308.089844 329.957031 305.832031 C 331.804688 303.574219 333.59375 301.269531 335.328125 298.925781 C 337.0625 296.578125 338.738281 294.191406 340.355469 291.761719 C 341.972656 289.332031 343.53125 286.863281 345.027344 284.359375 C 346.523438 281.855469 347.957031 279.3125 349.328125 276.738281 C 350.703125 274.164062 352.007812 271.554688 353.253906 268.914062 C 354.496094 266.277344 355.675781 263.609375 356.789062 260.910156 C 357.902344 258.210938 358.949219 255.488281 359.929688 252.742188 C 360.90625 249.992188 361.820312 247.222656 362.664062 244.425781 C 363.507812 241.632812 364.28125 238.820312 364.988281 235.992188 C 365.695312 233.160156 366.328125 230.3125 366.894531 227.449219 C 367.460938 224.585938 367.957031 221.710938 368.382812 218.824219 C 368.808594 215.9375 369.164062 213.042969 369.445312 210.136719 C 369.730469 207.234375 369.941406 204.324219 370.082031 201.410156 C 370.222656 198.496094 370.292969 195.578125 370.289062 192.660156 C 370.289062 189.742188 370.214844 186.828125 370.070312 183.910156 Z M 200.351562 358.078125 C 194.96875 358.355469 189.585938 358.367188 184.199219 358.113281 C 178.8125 357.859375 173.453125 357.34375 168.121094 356.566406 C 162.785156 355.785156 157.5 354.746094 152.269531 353.449219 C 147.035156 352.148438 141.878906 350.597656 136.800781 348.792969 C 131.71875 346.988281 126.742188 344.941406 121.863281 342.644531 C 116.984375 340.351562 112.226562 337.824219 107.597656 335.066406 C 102.964844 332.304688 98.484375 329.324219 94.144531 326.121094 C 89.808594 322.921875 85.636719 319.515625 81.632812 315.902344 C 76.210938 310.992188 71.125 305.75 66.382812 300.175781 C 61.640625 294.605469 57.277344 288.75 53.296875 282.609375 C 49.3125 276.472656 45.742188 270.101562 42.585938 263.5 C 39.433594 256.898438 36.714844 250.121094 34.4375 243.164062 C 30.289062 229.53125 27.757812 215.605469 26.851562 201.382812 C 26.648438 197.449219 26.585938 193.511719 26.664062 189.574219 C 26.742188 185.632812 26.960938 181.703125 27.320312 177.78125 C 27.679688 173.855469 28.179688 169.953125 28.816406 166.066406 C 29.457031 162.175781 30.234375 158.316406 31.148438 154.484375 C 32.0625 150.652344 33.113281 146.859375 34.300781 143.101562 C 35.488281 139.347656 36.808594 135.636719 38.257812 131.976562 C 39.710938 128.3125 41.292969 124.707031 43.003906 121.160156 C 44.714844 117.609375 46.546875 114.125 48.507812 110.707031 C 50.464844 107.289062 52.546875 103.949219 54.742188 100.679688 C 56.941406 97.410156 59.253906 94.222656 61.679688 91.121094 C 64.109375 88.015625 66.640625 85.003906 69.285156 82.082031 C 71.925781 79.160156 74.671875 76.335938 77.515625 73.609375 C 80.359375 70.882812 83.296875 68.261719 86.328125 65.746094 C 89.359375 63.230469 92.476562 60.828125 95.679688 58.535156 C 98.886719 56.242188 102.167969 54.066406 105.527344 52.007812 C 108.886719 49.953125 112.3125 48.015625 115.8125 46.203125 C 119.308594 44.390625 122.867188 42.707031 126.488281 41.148438 C 130.105469 39.589844 133.773438 38.164062 137.496094 36.871094 C 141.214844 35.574219 144.976562 34.414062 148.78125 33.386719 C 152.585938 32.363281 156.417969 31.472656 160.285156 30.722656 C 164.152344 29.96875 168.042969 29.359375 171.953125 28.882812 C 175.863281 28.410156 179.789062 28.078125 183.722656 27.886719 C 187.65625 27.691406 191.59375 27.640625 195.53125 27.730469 C 199.472656 27.820312 203.402344 28.050781 207.324219 28.417969 C 211.246094 28.789062 215.148438 29.300781 219.035156 29.949219 C 222.921875 30.597656 226.777344 31.386719 230.605469 32.3125 C 234.4375 33.238281 238.226562 34.300781 241.980469 35.496094 C 245.734375 36.691406 249.441406 38.023438 253.097656 39.484375 C 256.757812 40.945312 260.359375 42.539062 263.902344 44.257812 C 267.445312 45.976562 270.925781 47.820312 274.335938 49.789062 C 277.75 51.757812 281.085938 53.847656 284.351562 56.054688 C 287.613281 58.261719 290.792969 60.582031 293.890625 63.019531 C 300.296875 68.144531 306.304688 73.699219 311.914062 79.6875 C 317.523438 85.675781 322.675781 92.035156 327.371094 98.761719 C 332.066406 105.492188 336.257812 112.523438 339.941406 119.855469 C 343.628906 127.1875 346.769531 134.742188 349.367188 142.527344 C 353.648438 156.226562 356.203125 170.242188 357.035156 184.574219 C 357.167969 187.277344 357.234375 189.980469 357.238281 192.683594 C 357.238281 195.386719 357.175781 198.089844 357.042969 200.792969 C 356.914062 203.492188 356.714844 206.191406 356.453125 208.882812 C 356.191406 211.574219 355.863281 214.257812 355.46875 216.933594 C 355.074219 219.609375 354.613281 222.273438 354.089844 224.925781 C 353.5625 227.578125 352.972656 230.214844 352.320312 232.839844 C 351.664062 235.464844 350.945312 238.070312 350.164062 240.660156 C 349.382812 243.25 348.535156 245.816406 347.628906 248.363281 C 346.722656 250.910156 345.75 253.433594 344.71875 255.933594 C 343.6875 258.433594 342.59375 260.90625 341.441406 263.355469 C 340.289062 265.800781 339.078125 268.21875 337.804688 270.605469 C 336.535156 272.992188 335.203125 275.34375 333.816406 277.667969 C 332.429688 279.988281 330.988281 282.273438 329.488281 284.527344 C 327.992188 286.777344 326.4375 288.992188 324.828125 291.164062 C 323.222656 293.339844 321.5625 295.472656 319.851562 297.566406 C 318.136719 299.660156 316.375 301.710938 314.5625 303.71875 C 312.75 305.726562 310.890625 307.6875 308.980469 309.605469 C 307.074219 311.519531 305.117188 313.386719 303.117188 315.207031 C 301.117188 317.027344 299.074219 318.796875 296.988281 320.519531 C 294.902344 322.238281 292.773438 323.90625 290.605469 325.519531 C 288.433594 327.136719 286.226562 328.699219 283.984375 330.207031 C 281.738281 331.714844 279.457031 333.164062 277.140625 334.558594 C 274.824219 335.957031 272.472656 337.292969 270.09375 338.574219 C 267.710938 339.855469 265.296875 341.078125 262.855469 342.238281 C 260.414062 343.402344 257.945312 344.503906 255.449219 345.542969 C 252.953125 346.585938 250.433594 347.566406 247.890625 348.484375 C 245.34375 349.398438 242.78125 350.253906 240.195312 351.046875 C 237.609375 351.839844 235.003906 352.566406 232.382812 353.230469 C 229.761719 353.894531 227.125 354.496094 224.476562 355.03125 C 221.824219 355.566406 219.160156 356.035156 216.488281 356.441406 C 213.8125 356.84375 211.132812 357.183594 208.441406 357.457031 C 205.75 357.730469 203.054688 357.9375 200.351562 358.078125 Z M 200.351562 358.078125 " fill-opacity="1" fill-rule="nonzero"/></svg>