<svg xmlns="http://www.w3.org/2000/svg" xmlns:xlink="http://www.w3.org/1999/xlink" width="500" zoomAndPan="magnify" viewBox="0 0 375 374.999991" height="500" preserveAspectRatio="xMidYMid meet" version="1.0"><path fill="#593a23" d="M 187.488281 0 C 184.421875 0 181.355469 0.0742188 178.289062 0.226562 C 175.226562 0.378906 172.164062 0.605469 169.113281 0.90625 C 166.058594 1.207031 163.015625 1.582031 159.980469 2.03125 C 156.945312 2.484375 153.921875 3.007812 150.914062 3.605469 C 147.902344 4.207031 144.910156 4.878906 141.933594 5.625 C 138.957031 6.371094 136.003906 7.1875 133.066406 8.078125 C 130.128906 8.96875 127.21875 9.933594 124.328125 10.964844 C 121.441406 12 118.578125 13.105469 115.742188 14.28125 C 112.910156 15.453125 110.105469 16.699219 107.332031 18.007812 C 104.558594 19.320312 101.816406 20.699219 99.113281 22.148438 C 96.40625 23.59375 93.738281 25.105469 91.105469 26.683594 C 88.472656 28.261719 85.882812 29.902344 83.332031 31.609375 C 80.78125 33.3125 78.273438 35.078125 75.808594 36.90625 C 73.34375 38.734375 70.925781 40.625 68.554688 42.570312 C 66.183594 44.515625 63.859375 46.519531 61.585938 48.582031 C 59.3125 50.640625 57.09375 52.757812 54.921875 54.925781 C 52.753906 57.097656 50.640625 59.320312 48.578125 61.59375 C 46.519531 63.867188 44.515625 66.1875 42.570312 68.5625 C 40.621094 70.933594 38.734375 73.351562 36.90625 75.816406 C 35.082031 78.28125 33.3125 80.789062 31.609375 83.339844 C 29.90625 85.890625 28.265625 88.484375 26.6875 91.113281 C 25.109375 93.746094 23.597656 96.417969 22.152344 99.121094 C 20.707031 101.828125 19.328125 104.570312 18.015625 107.34375 C 16.703125 110.117188 15.460938 112.921875 14.289062 115.753906 C 13.113281 118.589844 12.011719 121.453125 10.976562 124.339844 C 9.941406 127.230469 8.980469 130.144531 8.089844 133.078125 C 7.199219 136.015625 6.382812 138.972656 5.636719 141.949219 C 4.890625 144.925781 4.21875 147.917969 3.621094 150.925781 C 3.023438 153.9375 2.5 156.957031 2.050781 159.992188 C 1.597656 163.027344 1.222656 166.074219 0.921875 169.125 C 0.621094 172.179688 0.398438 175.238281 0.246094 178.304688 C 0.0976562 181.367188 0.0234375 184.433594 0.0234375 187.503906 C 0.0234375 190.570312 0.0976562 193.636719 0.25 196.703125 C 0.398438 199.769531 0.625 202.828125 0.925781 205.878906 C 1.226562 208.933594 1.601562 211.976562 2.054688 215.011719 C 2.503906 218.046875 3.027344 221.070312 3.628906 224.078125 C 4.226562 227.089844 4.898438 230.082031 5.644531 233.058594 C 6.390625 236.035156 7.207031 238.992188 8.097656 241.925781 C 8.988281 244.863281 9.953125 247.777344 10.984375 250.664062 C 12.019531 253.554688 13.125 256.414062 14.296875 259.25 C 15.472656 262.085938 16.714844 264.886719 18.027344 267.664062 C 19.339844 270.4375 20.71875 273.175781 22.167969 275.882812 C 23.613281 278.585938 25.125 281.257812 26.703125 283.886719 C 28.28125 286.519531 29.921875 289.109375 31.625 291.664062 C 33.332031 294.214844 35.097656 296.722656 36.925781 299.183594 C 38.753906 301.648438 40.640625 304.066406 42.585938 306.441406 C 44.535156 308.8125 46.539062 311.132812 48.597656 313.40625 C 50.660156 315.679688 52.773438 317.902344 54.945312 320.070312 C 57.113281 322.242188 59.335938 324.355469 61.609375 326.417969 C 63.882812 328.476562 66.207031 330.480469 68.578125 332.425781 C 70.949219 334.375 73.367188 336.261719 75.832031 338.085938 C 78.296875 339.914062 80.804688 341.679688 83.355469 343.386719 C 85.90625 345.089844 88.5 346.730469 91.128906 348.308594 C 93.761719 349.886719 96.433594 351.398438 99.136719 352.84375 C 101.84375 354.289062 104.582031 355.667969 107.359375 356.980469 C 110.132812 358.292969 112.9375 359.535156 115.769531 360.710938 C 118.605469 361.882812 121.46875 362.988281 124.355469 364.019531 C 127.246094 365.054688 130.15625 366.015625 133.09375 366.90625 C 136.03125 367.796875 138.988281 368.617188 141.964844 369.359375 C 144.941406 370.105469 147.933594 370.777344 150.941406 371.378906 C 153.949219 371.976562 156.972656 372.5 160.007812 372.949219 C 163.042969 373.398438 166.089844 373.773438 169.140625 374.074219 C 172.195312 374.375 175.253906 374.601562 178.320312 374.753906 C 181.382812 374.902344 184.449219 374.976562 187.519531 374.976562 C 190.585938 374.976562 193.652344 374.902344 196.71875 374.75 C 199.78125 374.601562 202.839844 374.375 205.894531 374.074219 C 208.949219 373.773438 211.992188 373.398438 215.027344 372.949219 C 218.0625 372.496094 221.085938 371.972656 224.09375 371.375 C 227.105469 370.777344 230.097656 370.101562 233.074219 369.359375 C 236.050781 368.613281 239.003906 367.792969 241.941406 366.902344 C 244.878906 366.011719 247.789062 365.050781 250.679688 364.015625 C 253.570312 362.984375 256.429688 361.878906 259.265625 360.703125 C 262.101562 359.53125 264.902344 358.285156 267.675781 356.976562 C 270.453125 355.664062 273.191406 354.285156 275.898438 352.835938 C 278.601562 351.390625 281.273438 349.878906 283.902344 348.300781 C 286.535156 346.722656 289.125 345.082031 291.679688 343.378906 C 294.230469 341.671875 296.738281 339.90625 299.203125 338.078125 C 301.664062 336.25 304.085938 334.363281 306.457031 332.417969 C 308.828125 330.472656 311.148438 328.46875 313.421875 326.40625 C 315.695312 324.347656 317.917969 322.230469 320.089844 320.0625 C 322.257812 317.890625 324.371094 315.667969 326.433594 313.394531 C 328.492188 311.121094 330.496094 308.800781 332.445312 306.429688 C 334.390625 304.054688 336.277344 301.636719 338.105469 299.171875 C 339.933594 296.710938 341.699219 294.203125 343.402344 291.648438 C 345.109375 289.097656 346.75 286.507812 348.328125 283.875 C 349.90625 281.242188 351.417969 278.574219 352.863281 275.867188 C 354.308594 273.164062 355.6875 270.421875 357 267.648438 C 358.3125 264.875 359.554688 262.070312 360.730469 259.234375 C 361.902344 256.402344 363.007812 253.539062 364.039062 250.652344 C 365.074219 247.761719 366.035156 244.847656 366.925781 241.914062 C 367.816406 238.976562 368.636719 236.019531 369.382812 233.042969 C 370.128906 230.066406 370.800781 227.074219 371.398438 224.066406 C 371.996094 221.054688 372.519531 218.035156 372.972656 215 C 373.421875 211.964844 373.796875 208.917969 374.097656 205.867188 C 374.398438 202.8125 374.625 199.753906 374.773438 196.6875 C 374.925781 193.625 375 190.558594 375 187.488281 C 374.996094 184.421875 374.917969 181.355469 374.765625 178.292969 C 374.609375 175.226562 374.382812 172.167969 374.078125 169.117188 C 373.773438 166.066406 373.394531 163.019531 372.941406 159.988281 C 372.488281 156.953125 371.960938 153.933594 371.363281 150.921875 C 370.761719 147.914062 370.085938 144.925781 369.339844 141.949219 C 368.589844 138.972656 367.769531 136.019531 366.878906 133.082031 C 365.984375 130.148438 365.019531 127.238281 363.984375 124.351562 C 362.949219 121.460938 361.84375 118.601562 360.667969 115.769531 C 359.492188 112.933594 358.25 110.132812 356.9375 107.359375 C 355.621094 104.585938 354.242188 101.847656 352.796875 99.144531 C 351.347656 96.4375 349.835938 93.769531 348.257812 91.140625 C 346.679688 88.511719 345.039062 85.917969 343.332031 83.371094 C 341.625 80.820312 339.859375 78.3125 338.03125 75.847656 C 336.203125 73.386719 334.316406 70.96875 332.371094 68.597656 C 330.421875 66.226562 328.421875 63.90625 326.359375 61.632812 C 324.300781 59.359375 322.183594 57.136719 320.015625 54.96875 C 317.847656 52.800781 315.625 50.683594 313.351562 48.625 C 311.078125 46.566406 308.757812 44.5625 306.386719 42.617188 C 304.015625 40.667969 301.597656 38.78125 299.132812 36.953125 C 296.667969 35.125 294.164062 33.359375 291.613281 31.65625 C 289.0625 29.949219 286.472656 28.308594 283.839844 26.730469 C 281.210938 25.152344 278.542969 23.640625 275.835938 22.195312 C 273.132812 20.746094 270.394531 19.367188 267.621094 18.054688 C 264.847656 16.742188 262.046875 15.496094 259.210938 14.324219 C 256.378906 13.148438 253.515625 12.042969 250.628906 11.007812 C 247.742188 9.972656 244.832031 9.007812 241.894531 8.117188 C 238.960938 7.222656 236.003906 6.402344 233.03125 5.65625 C 230.054688 4.910156 227.0625 4.234375 224.054688 3.632812 C 221.046875 3.035156 218.023438 2.507812 214.992188 2.054688 C 211.957031 1.601562 208.914062 1.222656 205.859375 0.921875 C 202.808594 0.617188 199.75 0.386719 196.6875 0.234375 C 193.621094 0.0820312 190.558594 0.00390625 187.488281 0 Z M 13.726562 187.488281 C 13.722656 183.347656 13.867188 179.214844 14.160156 175.082031 C 14.453125 170.953125 14.894531 166.839844 15.480469 162.742188 C 16.070312 158.640625 16.800781 154.570312 17.679688 150.523438 C 18.558594 146.476562 19.582031 142.46875 20.746094 138.496094 C 21.914062 134.523438 23.21875 130.59375 24.664062 126.714844 C 26.113281 122.835938 27.695312 119.011719 29.414062 115.246094 C 31.136719 111.480469 32.988281 107.78125 34.972656 104.148438 C 36.957031 100.511719 39.070312 96.953125 41.308594 93.472656 C 43.546875 89.988281 45.910156 86.589844 48.390625 83.277344 C 50.871094 79.964844 53.46875 76.742188 56.183594 73.613281 C 58.894531 70.488281 61.71875 67.460938 64.644531 64.535156 C 67.574219 61.609375 70.605469 58.789062 73.738281 56.082031 C 76.867188 53.371094 80.089844 50.777344 83.40625 48.296875 C 86.722656 45.820312 90.125 43.460938 93.609375 41.226562 C 97.09375 38.992188 100.65625 36.882812 104.292969 34.902344 C 107.929688 32.921875 111.628906 31.074219 115.398438 29.359375 C 119.167969 27.640625 122.992188 26.0625 126.871094 24.621094 C 130.753906 23.179688 134.679688 21.875 138.65625 20.714844 C 142.628906 19.554688 146.640625 18.535156 150.6875 17.660156 C 154.734375 16.789062 158.808594 16.058594 162.90625 15.476562 C 167.003906 14.894531 171.121094 14.457031 175.25 14.167969 C 179.382812 13.878906 183.515625 13.738281 187.65625 13.746094 C 191.796875 13.753906 195.933594 13.910156 200.0625 14.210938 C 204.191406 14.515625 208.304688 14.964844 212.402344 15.5625 C 216.5 16.160156 220.570312 16.902344 224.613281 17.792969 C 228.65625 18.679688 232.664062 19.710938 236.632812 20.886719 C 240.605469 22.0625 244.527344 23.378906 248.402344 24.835938 C 252.28125 26.289062 256.097656 27.882812 259.859375 29.613281 C 263.621094 31.339844 267.316406 33.203125 270.945312 35.195312 C 274.574219 37.1875 278.128906 39.308594 281.605469 41.558594 C 285.082031 43.804688 288.476562 46.175781 291.785156 48.664062 C 295.089844 51.15625 298.304688 53.761719 301.425781 56.480469 L 219.5625 138.359375 C 219.5625 123.597656 219.640625 121.75 219.5625 106.992188 C 219.503906 106.457031 219.535156 105.925781 219.652344 105.398438 C 219.773438 104.871094 219.976562 104.378906 220.261719 103.917969 C 220.546875 103.460938 220.898438 103.0625 221.320312 102.722656 C 221.738281 102.382812 222.203125 102.121094 222.710938 101.9375 C 230.15625 98.148438 233.691406 77.613281 231.894531 70.035156 C 231.6875 69.105469 231.402344 68.199219 231.042969 67.316406 C 230.679688 66.433594 230.246094 65.585938 229.742188 64.777344 C 229.238281 63.96875 228.667969 63.207031 228.03125 62.496094 C 227.398438 61.785156 226.707031 61.128906 225.960938 60.535156 C 225.214844 59.941406 224.425781 59.414062 223.589844 58.953125 C 222.753906 58.492188 221.886719 58.105469 220.984375 57.792969 C 220.085938 57.480469 219.164062 57.242188 218.222656 57.085938 C 217.28125 56.929688 216.335938 56.855469 215.378906 56.859375 C 196.882812 56.6875 178.378906 56.640625 159.882812 56.859375 C 159.277344 56.851562 158.671875 56.875 158.066406 56.933594 C 157.460938 56.992188 156.863281 57.082031 156.265625 57.203125 C 155.671875 57.328125 155.085938 57.480469 154.507812 57.667969 C 153.929688 57.855469 153.363281 58.070312 152.808594 58.320312 C 152.253906 58.566406 151.714844 58.84375 151.191406 59.152344 C 150.667969 59.457031 150.160156 59.789062 149.671875 60.152344 C 149.1875 60.511719 148.71875 60.898438 148.273438 61.3125 C 147.828125 61.722656 147.402344 62.15625 147.003906 62.617188 C 146.605469 63.074219 146.234375 63.550781 145.886719 64.050781 C 145.539062 64.546875 145.21875 65.0625 144.929688 65.59375 C 144.636719 66.128906 144.375 66.675781 144.144531 67.238281 C 143.910156 67.796875 143.710938 68.371094 143.542969 68.953125 C 143.371094 69.535156 143.234375 70.125 143.128906 70.722656 C 143.023438 71.320312 142.949219 71.921875 142.910156 72.53125 C 142.867188 73.136719 142.859375 73.742188 142.886719 74.347656 C 142.910156 74.953125 142.96875 75.558594 143.058594 76.160156 C 144.070312 83.34375 148.496094 100.8125 155.550781 103.433594 C 155.550781 125.441406 155.363281 134.132812 155.6875 155.730469 C 155.75 156.292969 155.769531 156.855469 155.742188 157.421875 C 155.710938 157.984375 155.636719 158.542969 155.515625 159.09375 C 155.398438 159.644531 155.230469 160.183594 155.023438 160.710938 C 154.8125 161.234375 154.5625 161.738281 154.273438 162.222656 C 153.980469 162.707031 153.652344 163.164062 153.285156 163.59375 C 152.917969 164.023438 152.519531 164.417969 152.085938 164.785156 C 151.65625 165.148438 151.195312 165.472656 150.710938 165.761719 C 150.226562 166.050781 149.71875 166.296875 149.191406 166.503906 C 147.386719 167.472656 145.621094 168.511719 143.894531 169.617188 C 142.167969 170.71875 140.484375 171.890625 138.847656 173.121094 C 137.207031 174.355469 135.621094 175.648438 134.078125 177 C 132.539062 178.355469 131.054688 179.765625 129.621094 181.234375 C 128.191406 182.699219 126.816406 184.21875 125.5 185.789062 C 124.183594 187.363281 122.929688 188.980469 121.738281 190.648438 C 120.542969 192.316406 119.417969 194.027344 118.355469 195.78125 C 117.292969 197.53125 116.296875 199.324219 115.371094 201.152344 C 114.445312 202.980469 113.589844 204.84375 112.804688 206.738281 C 112.023438 208.632812 111.3125 210.550781 110.671875 212.5 C 110.035156 214.449219 109.472656 216.417969 108.984375 218.410156 C 108.496094 220.402344 108.085938 222.40625 107.75 224.429688 C 107.417969 226.453125 107.160156 228.484375 106.980469 230.527344 C 106.800781 232.570312 106.699219 234.617188 106.675781 236.664062 C 106.648438 238.714844 106.703125 240.761719 106.835938 242.808594 C 106.96875 244.855469 107.179688 246.890625 107.464844 248.921875 L 55.773438 300.609375 C 52.414062 296.71875 49.234375 292.6875 46.234375 288.511719 C 43.234375 284.339844 40.425781 280.039062 37.808594 275.617188 C 35.195312 271.191406 32.78125 266.660156 30.566406 262.019531 C 28.355469 257.382812 26.351562 252.652344 24.5625 247.835938 C 22.773438 243.019531 21.199219 238.128906 19.84375 233.171875 C 18.488281 228.214844 17.355469 223.207031 16.449219 218.144531 C 15.539062 213.085938 14.859375 207.996094 14.402344 202.878906 C 13.949219 197.757812 13.722656 192.628906 13.726562 187.488281 Z M 207.171875 104.320312 L 207.171875 109.65625 C 207.171875 130.035156 207.347656 137.507812 207.085938 157.890625 C 207.007812 158.855469 207.003906 159.820312 207.078125 160.785156 C 207.15625 161.753906 207.304688 162.707031 207.527344 163.648438 C 207.753906 164.589844 208.050781 165.507812 208.417969 166.40625 C 208.785156 167.300781 209.222656 168.160156 209.726562 168.988281 C 210.230469 169.816406 210.796875 170.597656 211.425781 171.335938 C 212.050781 172.074219 212.734375 172.757812 213.46875 173.390625 C 214.203125 174.019531 214.980469 174.589844 215.808594 175.097656 C 216.632812 175.605469 217.492188 176.046875 218.382812 176.421875 C 221.785156 178.105469 225.019531 180.066406 228.085938 182.300781 C 231.152344 184.535156 234.007812 187.011719 236.65625 189.734375 C 239.300781 192.453125 241.699219 195.378906 243.847656 198.503906 C 246 201.632812 247.867188 204.917969 249.460938 208.363281 L 125.730469 208.363281 C 126.96875 205.96875 127.820312 204.039062 128.910156 202.253906 C 132.050781 196.832031 135.90625 191.976562 140.472656 187.691406 C 145.039062 183.402344 150.128906 179.863281 155.738281 177.074219 C 156.734375 176.671875 157.691406 176.191406 158.613281 175.632812 C 159.53125 175.078125 160.402344 174.449219 161.21875 173.753906 C 162.035156 173.054688 162.792969 172.296875 163.488281 171.476562 C 164.183594 170.65625 164.808594 169.785156 165.363281 168.863281 C 165.917969 167.945312 166.394531 166.984375 166.796875 165.984375 C 167.195312 164.988281 167.511719 163.964844 167.746094 162.914062 C 167.980469 161.867188 168.128906 160.804688 168.191406 159.730469 C 168.253906 158.65625 168.230469 157.585938 168.117188 156.515625 C 167.695312 134.960938 168.007812 126.28125 168.007812 104.320312 C 168.226562 100.140625 167.84375 94.847656 164.488281 92.625 C 163.253906 91.804688 162.84375 92.207031 161.316406 91.417969 C 156.0625 88.671875 155.675781 80.871094 155.40625 75.339844 C 155.269531 74.546875 155.289062 73.761719 155.464844 72.976562 C 155.636719 72.191406 155.957031 71.46875 156.417969 70.8125 C 157.082031 70.214844 157.835938 69.777344 158.683594 69.496094 C 159.53125 69.21875 160.398438 69.121094 161.289062 69.207031 C 170.074219 69.234375 178.902344 69.207031 187.707031 69.207031 C 196.339844 69.207031 204.976562 69.207031 213.613281 69.207031 C 216.90625 69.207031 219.710938 70.003906 219.71875 73.847656 C 219.71875 77.332031 220.117188 88.414062 213.632812 91.417969 C 212.15625 92.101562 211.746094 91.714844 210.566406 92.464844 C 207.226562 94.605469 206.910156 100.03125 207.171875 104.320312 Z M 253.535156 221.265625 C 253.957031 222.964844 254.3125 224.675781 254.605469 226.402344 C 254.894531 228.128906 255.117188 229.863281 255.273438 231.609375 C 255.429688 233.351562 255.519531 235.097656 255.539062 236.847656 C 255.5625 238.597656 255.515625 240.347656 255.402344 242.09375 C 255.289062 243.839844 255.105469 245.582031 254.859375 247.3125 C 254.609375 249.046875 254.296875 250.765625 253.914062 252.476562 C 253.535156 254.183594 253.085938 255.875 252.574219 257.550781 C 252.0625 259.222656 251.488281 260.875 250.847656 262.503906 C 250.207031 264.132812 249.507812 265.734375 248.742188 267.3125 C 247.980469 268.886719 247.15625 270.429688 246.273438 271.941406 C 245.390625 273.453125 244.453125 274.929688 243.457031 276.367188 C 242.457031 277.804688 241.40625 279.203125 240.304688 280.5625 C 239.199219 281.921875 238.042969 283.234375 236.835938 284.5 C 235.628906 285.769531 234.375 286.988281 233.078125 288.160156 C 231.777344 289.332031 230.433594 290.453125 229.046875 291.519531 C 227.65625 292.589844 226.230469 293.601562 224.765625 294.558594 C 223.300781 295.515625 221.800781 296.417969 220.265625 297.257812 C 218.730469 298.097656 217.167969 298.878906 215.570312 299.601562 C 213.976562 300.320312 212.355469 300.980469 210.710938 301.574219 C 209.0625 302.171875 207.398438 302.703125 205.710938 303.167969 C 204.023438 303.636719 202.320312 304.035156 200.601562 304.371094 C 198.882812 304.707031 197.15625 304.972656 195.417969 305.175781 C 193.675781 305.378906 191.933594 305.511719 190.183594 305.578125 C 188.433594 305.644531 186.6875 305.644531 184.9375 305.574219 C 183.1875 305.507812 181.445312 305.371094 179.707031 305.167969 C 177.96875 304.964844 176.238281 304.695312 174.519531 304.359375 C 172.804688 304.019531 171.101562 303.617188 169.414062 303.148438 C 167.726562 302.679688 166.0625 302.148438 164.417969 301.550781 C 162.769531 300.953125 161.152344 300.296875 159.554688 299.574219 C 157.960938 298.851562 156.398438 298.066406 154.863281 297.222656 C 153.328125 296.382812 151.832031 295.480469 150.367188 294.519531 C 148.902344 293.5625 147.476562 292.546875 146.089844 291.480469 C 124.679688 275.25 113.917969 244.410156 121.761719 221.277344 Z M 187.488281 361.273438 C 181.820312 361.277344 176.164062 361.003906 170.523438 360.453125 C 164.882812 359.902344 159.28125 359.078125 153.71875 357.976562 C 148.160156 356.875 142.667969 355.503906 137.242188 353.863281 C 131.816406 352.222656 126.484375 350.320312 121.242188 348.15625 C 116.003906 345.992188 110.882812 343.578125 105.882812 340.910156 C 100.878906 338.242188 96.019531 335.339844 91.304688 332.195312 C 86.585938 329.050781 82.035156 325.683594 77.648438 322.09375 C 73.265625 318.5 69.0625 314.703125 65.050781 310.699219 L 111.457031 264.300781 C 112.226562 266.507812 113.089844 268.675781 114.050781 270.804688 C 115.007812 272.9375 116.054688 275.019531 117.195312 277.058594 C 118.335938 279.101562 119.558594 281.085938 120.871094 283.019531 C 122.183594 284.953125 123.574219 286.824219 125.050781 288.636719 C 126.523438 290.449219 128.074219 292.195312 129.699219 293.875 C 131.324219 295.550781 133.019531 297.15625 134.78125 298.6875 C 136.546875 300.21875 138.375 301.671875 140.265625 303.042969 C 142.15625 304.414062 144.101562 305.703125 146.105469 306.90625 C 148.105469 308.109375 150.15625 309.226562 152.257812 310.25 C 154.355469 311.277344 156.492188 312.210938 158.675781 313.050781 C 160.855469 313.890625 163.066406 314.636719 165.308594 315.285156 C 167.554688 315.933594 169.824219 316.480469 172.113281 316.933594 C 174.40625 317.386719 176.714844 317.738281 179.035156 317.988281 C 181.359375 318.238281 183.6875 318.390625 186.023438 318.4375 C 188.359375 318.488281 190.691406 318.4375 193.023438 318.285156 C 195.355469 318.128906 197.675781 317.878906 199.984375 317.523438 C 202.292969 317.167969 204.582031 316.714844 206.851562 316.160156 C 209.121094 315.609375 211.363281 314.960938 213.578125 314.210938 C 215.789062 313.464844 217.96875 312.621094 220.109375 311.6875 C 222.25 310.75 224.34375 309.722656 226.394531 308.605469 C 228.445312 307.488281 230.445312 306.28125 232.394531 304.992188 C 234.339844 303.699219 236.226562 302.328125 238.054688 300.871094 C 239.882812 299.417969 241.644531 297.886719 243.339844 296.277344 C 245.03125 294.667969 246.65625 292.992188 248.203125 291.242188 C 249.753906 289.492188 251.222656 287.683594 252.617188 285.804688 C 254.007812 283.929688 255.316406 281.996094 256.539062 280.007812 C 257.765625 278.015625 258.902344 275.976562 259.949219 273.890625 C 260.996094 271.800781 261.949219 269.671875 262.8125 267.5 C 263.675781 265.332031 264.441406 263.125 265.113281 260.890625 C 265.785156 258.652344 266.359375 256.390625 266.835938 254.101562 C 267.308594 251.8125 267.6875 249.511719 267.960938 247.191406 C 268.238281 244.871094 268.410156 242.542969 268.484375 240.207031 C 268.664062 206.355469 253.480469 181.410156 223.832031 165.261719 C 223.160156 164.988281 222.550781 164.617188 221.996094 164.148438 C 221.445312 163.679688 220.976562 163.136719 220.597656 162.523438 C 220.214844 161.90625 219.9375 161.246094 219.761719 160.542969 C 219.585938 159.839844 219.523438 159.128906 219.574219 158.40625 C 219.574219 158.125 219.574219 157.855469 219.574219 157.570312 C 220.003906 157.285156 220.402344 156.960938 220.765625 156.59375 L 311.453125 65.886719 C 314.433594 68.917969 317.296875 72.050781 320.046875 75.292969 C 322.796875 78.535156 325.421875 81.871094 327.925781 85.304688 C 330.429688 88.738281 332.804688 92.257812 335.050781 95.867188 C 337.296875 99.476562 339.40625 103.160156 341.382812 106.925781 C 343.359375 110.6875 345.191406 114.519531 346.886719 118.414062 C 348.582031 122.3125 350.128906 126.269531 351.53125 130.28125 C 352.9375 134.292969 354.191406 138.347656 355.296875 142.453125 C 356.402344 146.554688 357.355469 150.695312 358.15625 154.867188 C 358.960938 159.042969 359.605469 163.238281 360.101562 167.460938 C 360.59375 171.683594 360.933594 175.914062 361.113281 180.160156 C 361.296875 184.40625 361.324219 188.65625 361.195312 192.902344 C 361.066406 197.152344 360.78125 201.386719 360.339844 205.613281 C 359.902344 209.84375 359.304688 214.046875 358.558594 218.230469 C 357.808594 222.414062 356.90625 226.566406 355.851562 230.683594 C 354.800781 234.800781 353.597656 238.871094 352.242188 242.902344 C 350.890625 246.929688 349.390625 250.902344 347.746094 254.824219 C 346.101562 258.742188 344.316406 262.59375 342.390625 266.382812 C 340.460938 270.171875 338.398438 273.882812 336.199219 277.519531 C 333.996094 281.15625 331.667969 284.707031 329.207031 288.171875 C 326.746094 291.636719 324.160156 295.003906 321.453125 298.28125 C 318.746094 301.554688 315.917969 304.726562 312.980469 307.796875 C 310.039062 310.863281 306.988281 313.820312 303.828125 316.664062 C 300.671875 319.507812 297.414062 322.230469 294.054688 324.835938 C 290.695312 327.441406 287.246094 329.917969 283.707031 332.269531 C 280.167969 334.621094 276.546875 336.839844 272.84375 338.925781 C 269.140625 341.011719 265.367188 342.960938 261.519531 344.769531 C 257.671875 346.578125 253.765625 348.242188 249.796875 349.761719 C 245.832031 351.285156 241.8125 352.660156 237.742188 353.886719 C 233.671875 355.113281 229.566406 356.1875 225.417969 357.113281 C 221.269531 358.035156 217.09375 358.808594 212.886719 359.425781 C 208.683594 360.046875 204.460938 360.507812 200.222656 360.816406 C 195.984375 361.125 191.738281 361.277344 187.488281 361.273438 Z M 187.488281 361.273438 " fill-opacity="1" fill-rule="nonzero"/></svg>