<svg xmlns="http://www.w3.org/2000/svg" xmlns:xlink="http://www.w3.org/1999/xlink" width="500" zoomAndPan="magnify" viewBox="0 0 375 374.999991" height="500" preserveAspectRatio="xMidYMid meet" version="1.0"><path fill="#593a23" d="M 187.5 0 C 84.109375 0 0 84.109375 0 187.5 C 0 290.890625 84.109375 375 187.5 375 C 290.890625 375 375 290.890625 375 187.5 C 375 84.109375 290.890625 0 187.5 0 Z M 187.5 359.375 C 92.734375 359.375 15.625 282.265625 15.625 187.5 C 15.625 92.734375 92.734375 15.625 187.5 15.625 C 282.265625 15.625 359.375 92.734375 359.375 187.5 C 359.375 282.265625 282.265625 359.375 187.5 359.375 Z M 187.5 359.375 " fill-opacity="1" fill-rule="nonzero"/><path fill="#593a23" d="M 273.4375 250 L 270.140625 250 C 275.34375 235.921875 273.296875 220.484375 265.234375 208.359375 C 268.28125 207.0625 271.03125 205.3125 273.34375 203.015625 C 287.65625 188.71875 281.828125 160.34375 260.0625 138.375 C 252.125 130.4375 243 124.515625 233.921875 121 C 234.203125 111.3125 232.703125 99.5625 229.421875 87.515625 C 224.78125 70.109375 215.625 49.140625 203.90625 42.46875 C 199.15625 39.734375 195.125 40.03125 192.65625 40.75 C 184.59375 42.90625 180.140625 51.765625 179.671875 65.6875 C 167.359375 58.53125 155.75 56.046875 148.84375 62.921875 C 137.359375 74.390625 151.640625 98.953125 170.875 118.1875 C 177.015625 124.34375 183.484375 129.765625 189.65625 133.984375 C 187.140625 140.34375 187 148.03125 188.96875 156.265625 L 148.4375 156.265625 C 109.671875 156.25 78.125 187.796875 78.125 226.5625 C 65.203125 226.5625 54.6875 237.078125 54.6875 250 C 54.6875 262.921875 65.203125 273.4375 78.125 273.4375 C 83.421875 273.4375 88.328125 271.5625 92.3125 268.46875 C 94.328125 271.171875 96.3125 273.90625 98.71875 276.359375 C 112.15625 289.578125 129.8125 296.875 148.4375 296.875 L 273.4375 296.875 C 286.359375 296.875 296.875 286.359375 296.875 273.4375 C 296.875 260.515625 286.359375 250 273.4375 250 Z M 196.921875 56.484375 C 200.640625 59.296875 208.765625 70.6875 214.34375 91.578125 C 214.984375 93.9375 215.46875 96.234375 215.96875 98.53125 C 212.484375 94 208.609375 89.421875 204.125 84.9375 C 201.484375 82.28125 198.71875 79.765625 195.921875 77.359375 C 194.671875 66.265625 195.765625 59.203125 196.921875 56.484375 Z M 78.125 257.8125 C 73.8125 257.8125 70.3125 254.296875 70.3125 250 C 70.3125 244.921875 75.828125 241.78125 80.234375 242.8125 C 81.1875 246.78125 82.375 250.6875 84 254.4375 C 82.578125 256.359375 80.5625 257.8125 78.125 257.8125 Z M 273.4375 281.25 L 201.6875 281.25 C 202.5625 278.796875 203.125 276.1875 203.125 273.4375 C 203.125 260.515625 192.609375 250 179.6875 250 L 171.09375 250 C 167.46875 232.1875 151.6875 218.75 132.8125 218.75 L 125 218.75 C 120.6875 218.75 117.1875 222.25 117.1875 226.5625 C 117.1875 230.875 120.6875 234.375 125 234.375 L 132.8125 234.375 C 145.734375 234.375 156.25 244.890625 156.25 257.8125 C 156.25 262.125 159.75 265.625 164.0625 265.625 L 179.6875 265.625 C 184 265.625 187.5 269.140625 187.5 273.4375 C 187.5 277.734375 184 281.25 179.6875 281.25 L 148.4375 281.25 C 133.9375 281.25 120.1875 275.5625 109.78125 265.296875 C 99.4375 254.8125 93.75 241.046875 93.75 226.5625 C 93.75 196.40625 118.28125 171.875 148.4375 171.875 L 199.84375 171.875 C 199.890625 171.875 199.921875 171.859375 199.953125 171.859375 C 200.53125 171.859375 201.09375 171.65625 201.671875 171.515625 C 202.109375 171.40625 202.578125 171.375 202.984375 171.203125 C 203.03125 171.1875 203.078125 171.1875 203.109375 171.171875 C 203.46875 171 203.71875 170.703125 204.046875 170.484375 C 204.546875 170.15625 205.0625 169.875 205.46875 169.4375 C 205.8125 169.078125 206.015625 168.640625 206.28125 168.234375 C 206.5625 167.796875 206.890625 167.40625 207.078125 166.90625 C 207.296875 166.359375 207.328125 165.78125 207.421875 165.203125 C 207.484375 164.8125 207.65625 164.46875 207.65625 164.0625 C 207.65625 164.015625 207.625 163.984375 207.625 163.9375 C 207.625 163.4375 207.4375 162.953125 207.328125 162.453125 C 207.21875 161.921875 207.171875 161.375 206.953125 160.890625 C 206.9375 160.859375 206.9375 160.8125 206.921875 160.78125 C 202.171875 150.53125 201.84375 141.296875 206.0625 136.6875 C 207.671875 134.921875 208.390625 132.5 208.015625 130.140625 C 207.625 127.78125 206.171875 125.734375 204.09375 124.578125 C 197.265625 120.8125 189.40625 114.609375 181.9375 107.140625 C 166.671875 91.875 160.9375 79.109375 160.40625 74.46875 C 165.046875 75 177.828125 80.734375 193.078125 96 C 205.875 108.78125 212.9375 120.90625 214.234375 127.21875 C 214.890625 130.421875 217.484375 132.859375 220.71875 133.359375 C 229.734375 134.71875 240.3125 140.734375 249 149.40625 C 265.390625 165.953125 269.171875 185.109375 262.3125 191.984375 C 259.09375 195.203125 253.984375 195.546875 250.203125 195.203125 C 249.921875 195.1875 249.6875 195.296875 249.40625 195.296875 C 248.8125 195.3125 248.25 195.359375 247.671875 195.5 C 247.234375 195.609375 246.84375 195.765625 246.4375 195.9375 C 245.9375 196.15625 245.484375 196.390625 245.046875 196.71875 C 244.625 197.015625 244.28125 197.359375 243.921875 197.734375 C 243.71875 197.953125 243.4375 198.09375 243.25 198.34375 C 243.125 198.515625 243.109375 198.703125 243 198.875 C 242.71875 199.3125 242.53125 199.78125 242.34375 200.28125 C 242.15625 200.78125 241.984375 201.265625 241.90625 201.796875 C 241.875 201.984375 241.765625 202.140625 241.75 202.328125 C 241.71875 202.625 241.84375 202.875 241.84375 203.171875 C 241.859375 203.734375 241.90625 204.265625 242.03125 204.8125 C 242.140625 205.28125 242.3125 205.71875 242.515625 206.140625 C 242.71875 206.609375 242.953125 207.03125 243.25 207.453125 C 243.5625 207.890625 243.921875 208.265625 244.328125 208.625 C 244.546875 208.828125 244.671875 209.078125 244.90625 209.265625 C 255.234375 216.875 261.71875 232.546875 254.109375 247.765625 L 250.828125 254.328125 C 249.609375 256.75 249.75 259.625 251.171875 261.921875 C 252.59375 264.21875 255.109375 265.625 257.8125 265.625 L 273.4375 265.625 C 277.75 265.625 281.25 269.140625 281.25 273.4375 C 281.25 277.734375 277.75 281.25 273.4375 281.25 Z M 273.4375 281.25 " fill-opacity="1" fill-rule="nonzero"/><path fill="#593a23" d="M 250 164.0625 C 250 164.574219 249.949219 165.082031 249.851562 165.585938 C 249.75 166.089844 249.601562 166.578125 249.40625 167.050781 C 249.207031 167.527344 248.96875 167.976562 248.683594 168.402344 C 248.398438 168.828125 248.074219 169.222656 247.710938 169.585938 C 247.347656 169.949219 246.953125 170.273438 246.527344 170.558594 C 246.101562 170.84375 245.652344 171.085938 245.175781 171.28125 C 244.703125 171.476562 244.214844 171.625 243.710938 171.726562 C 243.207031 171.824219 242.699219 171.875 242.1875 171.875 C 241.675781 171.875 241.167969 171.824219 240.664062 171.726562 C 240.160156 171.625 239.671875 171.476562 239.199219 171.28125 C 238.722656 171.085938 238.273438 170.84375 237.847656 170.558594 C 237.421875 170.273438 237.027344 169.949219 236.664062 169.585938 C 236.300781 169.222656 235.976562 168.828125 235.691406 168.402344 C 235.40625 167.976562 235.164062 167.527344 234.96875 167.050781 C 234.773438 166.578125 234.625 166.089844 234.523438 165.585938 C 234.425781 165.082031 234.375 164.574219 234.375 164.0625 C 234.375 163.550781 234.425781 163.042969 234.523438 162.539062 C 234.625 162.035156 234.773438 161.546875 234.96875 161.074219 C 235.164062 160.597656 235.40625 160.148438 235.691406 159.722656 C 235.976562 159.296875 236.300781 158.902344 236.664062 158.539062 C 237.027344 158.175781 237.421875 157.851562 237.847656 157.566406 C 238.273438 157.28125 238.722656 157.039062 239.199219 156.84375 C 239.671875 156.648438 240.160156 156.5 240.664062 156.398438 C 241.167969 156.300781 241.675781 156.25 242.1875 156.25 C 242.699219 156.25 243.207031 156.300781 243.710938 156.398438 C 244.214844 156.5 244.703125 156.648438 245.175781 156.84375 C 245.652344 157.039062 246.101562 157.28125 246.527344 157.566406 C 246.953125 157.851562 247.347656 158.175781 247.710938 158.539062 C 248.074219 158.902344 248.398438 159.296875 248.683594 159.722656 C 248.96875 160.148438 249.207031 160.597656 249.40625 161.074219 C 249.601562 161.546875 249.75 162.035156 249.851562 162.539062 C 249.949219 163.042969 250 163.550781 250 164.0625 Z M 250 164.0625 " fill-opacity="1" fill-rule="nonzero"/></svg>