<svg xmlns="http://www.w3.org/2000/svg" xmlns:xlink="http://www.w3.org/1999/xlink" width="500" zoomAndPan="magnify" viewBox="0 0 375 374.999991" height="500" preserveAspectRatio="xMidYMid meet" version="1.0"><path fill="#593a23" d="M 172.46875 278.972656 C 171.070312 278.703125 169.628906 278.636719 168.226562 278.378906 C 162.910156 277.394531 157.605469 276.367188 151.996094 275.300781 C 152.558594 274.164062 152.808594 273.574219 153.132812 273.023438 C 154.722656 270.40625 156.035156 267.652344 157.0625 264.765625 C 158.09375 261.882812 158.820312 258.921875 159.25 255.886719 C 159.675781 252.855469 159.796875 249.808594 159.605469 246.75 C 159.410156 243.691406 158.914062 240.683594 158.109375 237.726562 C 157.191406 234.503906 156.015625 231.375 154.582031 228.339844 C 153.152344 225.308594 151.484375 222.414062 149.578125 219.652344 C 147.675781 216.890625 145.558594 214.304688 143.230469 211.890625 C 140.902344 209.476562 138.394531 207.265625 135.703125 205.261719 C 128.742188 199.402344 121.535156 193.824219 114.765625 187.75 C 113.609375 186.796875 112.519531 185.769531 111.5 184.671875 C 110.480469 183.574219 109.539062 182.410156 108.675781 181.183594 C 107.8125 179.957031 107.035156 178.679688 106.34375 177.351562 C 105.652344 176.019531 105.050781 174.648438 104.542969 173.238281 C 104.035156 171.828125 103.621094 170.390625 103.308594 168.925781 C 102.992188 167.457031 102.777344 165.976562 102.660156 164.484375 C 102.542969 162.988281 102.527344 161.492188 102.609375 159.996094 C 102.695312 158.5 102.878906 157.015625 103.160156 155.542969 C 103.316406 154.902344 103.359375 154.253906 103.292969 153.597656 C 103.226562 152.941406 103.054688 152.316406 102.777344 151.71875 C 102.503906 151.121094 102.132812 150.582031 101.675781 150.109375 C 101.21875 149.636719 100.695312 149.253906 100.105469 148.957031 C 99.566406 148.636719 98.992188 148.414062 98.378906 148.292969 C 97.765625 148.167969 97.148438 148.148438 96.527344 148.234375 C 95.90625 148.320312 95.316406 148.503906 94.761719 148.789062 C 94.203125 149.074219 93.707031 149.441406 93.273438 149.894531 C 76.320312 164.679688 62.496094 181.753906 56.347656 203.789062 C 48.753906 231.046875 53.410156 256.019531 72.972656 277 C 90.25 295.539062 120.003906 300.785156 141.230469 285.71875 C 142.601562 285.09375 144.011719 284.980469 145.460938 285.382812 C 153.863281 286.988281 162.214844 288.871094 170.628906 290.398438 C 171.011719 290.503906 171.402344 290.5625 171.796875 290.582031 C 172.191406 290.597656 172.582031 290.574219 172.972656 290.503906 C 173.363281 290.4375 173.742188 290.328125 174.105469 290.175781 C 174.472656 290.023438 174.816406 289.835938 175.140625 289.609375 C 175.464844 289.378906 175.757812 289.121094 176.027344 288.828125 C 176.292969 288.535156 176.523438 288.21875 176.722656 287.875 C 176.917969 287.53125 177.074219 287.171875 177.195312 286.796875 C 177.3125 286.417969 177.386719 286.03125 177.417969 285.636719 C 177.5 285.253906 177.535156 284.867188 177.535156 284.472656 C 177.53125 284.082031 177.488281 283.695312 177.402344 283.3125 C 177.316406 282.929688 177.191406 282.558594 177.03125 282.203125 C 176.867188 281.847656 176.667969 281.511719 176.433594 281.199219 C 176.203125 280.882812 175.9375 280.597656 175.644531 280.335938 C 175.347656 280.078125 175.03125 279.851562 174.6875 279.660156 C 174.347656 279.46875 173.988281 279.316406 173.617188 279.199219 C 173.242188 279.082031 172.859375 279.007812 172.46875 278.972656 Z M 144.839844 263.417969 C 143.550781 266.058594 142.105469 268.609375 140.496094 271.066406 C 135.835938 268.398438 131.332031 266.152344 127.179688 263.386719 C 124.03125 261.421875 121.070312 259.203125 118.296875 256.730469 C 115.527344 254.257812 112.988281 251.5625 110.683594 248.652344 C 108.375 245.742188 106.335938 242.65625 104.558594 239.394531 C 102.785156 236.132812 101.300781 232.742188 100.105469 229.226562 C 98.707031 224.949219 95.621094 223.285156 92.078125 224.578125 C 88.882812 225.746094 87.675781 228.917969 89.054688 233.089844 C 90.613281 237.585938 92.558594 241.90625 94.902344 246.046875 C 97.242188 250.1875 99.9375 254.085938 102.984375 257.738281 C 106.03125 261.390625 109.386719 264.738281 113.042969 267.785156 C 116.699219 270.828125 120.597656 273.519531 124.742188 275.855469 C 126.167969 276.726562 127.621094 277.5625 129.441406 278.648438 C 128.441406 279.140625 127.421875 279.589844 126.382812 279.996094 C 125.34375 280.402344 124.289062 280.765625 123.21875 281.085938 C 122.152344 281.402344 121.070312 281.675781 119.980469 281.90625 C 118.886719 282.136719 117.789062 282.316406 116.679688 282.457031 C 115.574219 282.59375 114.464844 282.683594 113.347656 282.730469 C 112.234375 282.773438 111.117188 282.773438 110.003906 282.726562 C 108.890625 282.675781 107.777344 282.582031 106.671875 282.441406 C 105.566406 282.304688 104.464844 282.117188 103.375 281.886719 C 102.285156 281.652344 101.203125 281.378906 100.136719 281.054688 C 99.066406 280.734375 98.015625 280.371094 96.976562 279.960938 C 95.9375 279.550781 94.921875 279.097656 93.917969 278.605469 C 92.917969 278.113281 91.941406 277.578125 90.984375 277 C 90.03125 276.425781 89.101562 275.8125 88.195312 275.160156 C 87.289062 274.507812 86.414062 273.816406 85.566406 273.09375 C 84.71875 272.367188 83.902344 271.605469 83.121094 270.8125 C 82.335938 270.019531 81.585938 269.195312 80.871094 268.339844 C 62.789062 247.621094 60.605469 224.132812 70.347656 199.101562 C 72.753906 193.273438 75.714844 187.742188 79.230469 182.511719 C 82.75 177.277344 86.75 172.449219 91.238281 168.019531 C 91.640625 170.597656 92.257812 173.125 93.085938 175.601562 C 93.914062 178.078125 94.941406 180.46875 96.171875 182.769531 C 97.398438 185.074219 98.808594 187.261719 100.402344 189.328125 C 101.996094 191.394531 103.753906 193.316406 105.667969 195.089844 C 110.46875 199.648438 115.695312 203.753906 120.695312 208.109375 C 126.167969 212.496094 131.390625 217.167969 136.363281 222.117188 C 137.730469 223.402344 138.988281 224.785156 140.144531 226.261719 C 141.296875 227.742188 142.332031 229.300781 143.246094 230.9375 C 144.160156 232.574219 144.945312 234.273438 145.597656 236.03125 C 146.25 237.789062 146.765625 239.589844 147.144531 241.425781 C 147.519531 243.261719 147.753906 245.117188 147.847656 246.992188 C 147.9375 248.867188 147.886719 250.734375 147.691406 252.601562 C 147.496094 254.464844 147.160156 256.304688 146.679688 258.121094 C 146.203125 259.933594 145.589844 261.699219 144.839844 263.417969 Z M 293.523438 176.695312 C 292.265625 175.863281 291.425781 174.726562 290.996094 173.285156 C 287.925781 165.296875 285.113281 157.210938 281.972656 149.257812 C 281.855469 148.878906 281.699219 148.519531 281.507812 148.175781 C 281.3125 147.832031 281.082031 147.511719 280.820312 147.21875 C 280.554688 146.921875 280.261719 146.660156 279.941406 146.429688 C 279.621094 146.199219 279.277344 146.007812 278.914062 145.855469 C 278.550781 145.699219 278.171875 145.585938 277.785156 145.511719 C 277.394531 145.441406 277.003906 145.410156 276.609375 145.425781 C 276.214844 145.4375 275.824219 145.492188 275.441406 145.59375 C 275.058594 145.691406 274.691406 145.832031 274.339844 146.007812 C 273.972656 146.148438 273.628906 146.320312 273.296875 146.53125 C 272.96875 146.742188 272.664062 146.984375 272.386719 147.257812 C 272.109375 147.53125 271.863281 147.832031 271.648438 148.15625 C 271.429688 148.480469 271.253906 148.828125 271.109375 149.191406 C 270.964844 149.554688 270.863281 149.925781 270.800781 150.3125 C 270.734375 150.699219 270.710938 151.085938 270.730469 151.476562 C 270.746094 151.867188 270.804688 152.25 270.902344 152.628906 C 271 153.003906 271.136719 153.371094 271.3125 153.71875 C 271.832031 155.050781 272.527344 156.328125 273.050781 157.636719 C 275.019531 162.671875 276.953125 167.722656 279.003906 173.046875 C 277.738281 173.167969 277.109375 173.269531 276.472656 173.277344 C 273.40625 173.3125 270.378906 173.652344 267.382812 174.304688 C 264.390625 174.953125 261.492188 175.898438 258.6875 177.136719 C 255.886719 178.375 253.238281 179.882812 250.742188 181.660156 C 248.246094 183.4375 245.957031 185.449219 243.871094 187.691406 C 241.617188 190.175781 239.582031 192.828125 237.761719 195.644531 C 235.941406 198.460938 234.359375 201.410156 233.023438 204.484375 C 231.683594 207.558594 230.605469 210.722656 229.785156 213.976562 C 228.960938 217.226562 228.410156 220.523438 228.128906 223.867188 C 226.832031 232.871094 225.898438 241.9375 224.316406 250.890625 C 224.117188 252.375 223.820312 253.84375 223.425781 255.289062 C 223.03125 256.734375 222.542969 258.148438 221.957031 259.53125 C 221.375 260.910156 220.699219 262.246094 219.933594 263.535156 C 219.171875 264.828125 218.324219 266.0625 217.394531 267.238281 C 216.464844 268.414062 215.460938 269.523438 214.382812 270.566406 C 213.304688 271.605469 212.164062 272.574219 210.953125 273.460938 C 209.746094 274.347656 208.484375 275.152344 207.167969 275.871094 C 205.851562 276.589844 204.496094 277.21875 203.09375 277.757812 C 202.46875 277.964844 201.898438 278.269531 201.375 278.671875 C 200.851562 279.074219 200.410156 279.550781 200.050781 280.101562 C 199.6875 280.652344 199.429688 281.246094 199.269531 281.886719 C 199.109375 282.527344 199.058594 283.171875 199.117188 283.828125 C 199.128906 284.457031 199.242188 285.0625 199.457031 285.648438 C 199.675781 286.234375 199.984375 286.769531 200.382812 287.253906 C 200.78125 287.738281 201.246094 288.140625 201.78125 288.464844 C 202.316406 288.789062 202.890625 289.015625 203.503906 289.148438 C 225.011719 295.738281 246.789062 298.46875 268.789062 292.046875 C 295.945312 284.101562 314.675781 266.976562 322.175781 239.261719 C 328.757812 214.804688 317.5 186.769531 293.523438 176.695312 Z M 310.644531 237.117188 C 302.601562 263.414062 283.808594 277.671875 257.40625 282.625 C 251.191406 283.65625 244.933594 284.0625 238.632812 283.839844 C 232.335938 283.617188 226.121094 282.773438 219.992188 281.300781 C 221.96875 279.597656 223.789062 277.738281 225.453125 275.726562 C 227.117188 273.71875 228.605469 271.582031 229.910156 269.324219 C 231.21875 267.0625 232.328125 264.710938 233.242188 262.265625 C 234.15625 259.820312 234.863281 257.316406 235.355469 254.753906 C 236.695312 248.273438 237.414062 241.660156 238.492188 235.121094 C 239.320312 228.148438 240.523438 221.242188 242.097656 214.398438 C 242.46875 212.5625 242.980469 210.761719 243.625 209.003906 C 244.273438 207.246094 245.050781 205.546875 245.957031 203.90625 C 246.867188 202.265625 247.894531 200.707031 249.039062 199.222656 C 250.1875 197.742188 251.441406 196.355469 252.800781 195.066406 C 254.160156 193.777344 255.613281 192.601562 257.152344 191.535156 C 258.691406 190.464844 260.304688 189.523438 261.992188 188.703125 C 263.675781 187.886719 265.414062 187.199219 267.207031 186.648438 C 268.996094 186.09375 270.820312 185.683594 272.675781 185.410156 C 275.601562 185.113281 278.535156 185 281.472656 185.066406 C 281.671875 190.433594 282.136719 195.445312 281.996094 200.433594 C 281.992188 204.144531 281.671875 207.832031 281.03125 211.488281 C 280.394531 215.148438 279.445312 218.726562 278.191406 222.222656 C 276.941406 225.714844 275.398438 229.078125 273.566406 232.308594 C 271.734375 235.542969 269.640625 238.589844 267.285156 241.460938 C 266.949219 241.75 266.652344 242.074219 266.386719 242.429688 C 266.125 242.785156 265.90625 243.167969 265.726562 243.574219 C 265.550781 243.976562 265.417969 244.398438 265.335938 244.832031 C 265.25 245.265625 265.214844 245.703125 265.230469 246.144531 C 265.242188 246.589844 265.304688 247.023438 265.414062 247.453125 C 265.527344 247.878906 265.683594 248.292969 265.882812 248.683594 C 266.085938 249.078125 266.328125 249.445312 266.613281 249.785156 C 266.898438 250.125 267.214844 250.429688 267.566406 250.695312 C 270.246094 252.785156 273.574219 252.144531 276.386719 248.769531 C 279.382812 245.074219 282.023438 241.140625 284.304688 236.964844 C 286.585938 232.789062 288.476562 228.441406 289.96875 223.925781 C 291.460938 219.410156 292.535156 214.792969 293.1875 210.082031 C 293.84375 205.367188 294.066406 200.636719 293.863281 195.882812 C 293.863281 194.207031 293.789062 192.535156 293.742188 190.398438 C 294.691406 190.988281 295.609375 191.617188 296.503906 192.285156 C 297.398438 192.953125 298.265625 193.65625 299.101562 194.398438 C 299.9375 195.136719 300.742188 195.910156 301.511719 196.71875 C 302.285156 197.523438 303.023438 198.359375 303.722656 199.230469 C 304.425781 200.097656 305.089844 200.992188 305.71875 201.914062 C 306.34375 202.839844 306.933594 203.785156 307.480469 204.757812 C 308.03125 205.730469 308.535156 206.726562 309.003906 207.738281 C 309.46875 208.753906 309.890625 209.785156 310.269531 210.835938 C 310.648438 211.886719 310.984375 212.949219 311.277344 214.027344 C 311.566406 215.105469 311.8125 216.191406 312.015625 217.289062 C 312.214844 218.390625 312.371094 219.492188 312.476562 220.605469 C 312.585938 221.714844 312.648438 222.828125 312.664062 223.945312 C 312.679688 225.0625 312.648438 226.175781 312.574219 227.289062 C 312.496094 228.402344 312.375 229.511719 312.203125 230.617188 C 312.035156 231.71875 311.820312 232.8125 311.558594 233.898438 C 311.300781 234.984375 310.992188 236.058594 310.644531 237.117188 Z M 253.527344 136.453125 C 254.023438 136.929688 254.585938 137.3125 255.214844 137.601562 C 255.84375 137.886719 256.5 138.0625 257.1875 138.125 C 257.875 138.1875 258.554688 138.132812 259.222656 137.964844 C 259.894531 137.792969 260.515625 137.519531 261.089844 137.136719 C 261.644531 136.777344 262.121094 136.339844 262.527344 135.820312 C 262.933594 135.300781 263.242188 134.726562 263.453125 134.101562 C 263.667969 133.480469 263.773438 132.839844 263.769531 132.179688 C 263.769531 131.519531 263.65625 130.878906 263.441406 130.257812 C 261.871094 121.390625 259.316406 112.820312 255.773438 104.542969 C 252.230469 96.265625 247.792969 88.496094 242.460938 81.242188 C 222.371094 55.460938 196.378906 43.671875 163.671875 50.5 C 162.117188 50.804688 160.574219 51.179688 159.050781 51.628906 C 157.527344 52.074219 156.027344 52.585938 154.554688 53.167969 C 153.078125 53.753906 151.628906 54.402344 150.210938 55.113281 C 148.796875 55.828125 147.414062 56.605469 146.066406 57.445312 C 144.71875 58.289062 143.414062 59.1875 142.148438 60.144531 C 140.886719 61.105469 139.667969 62.121094 138.496094 63.191406 C 137.324219 64.261719 136.203125 65.382812 135.132812 66.554688 C 134.0625 67.726562 133.046875 68.945312 132.085938 70.207031 C 131.128906 71.472656 130.230469 72.777344 129.390625 74.125 C 128.550781 75.472656 127.773438 76.855469 127.058594 78.273438 C 126.34375 79.6875 125.695312 81.136719 125.113281 82.613281 C 124.53125 84.089844 124.015625 85.589844 123.570312 87.113281 C 123.125 88.636719 122.75 90.175781 122.441406 91.734375 C 122.136719 93.289062 121.902344 94.859375 121.742188 96.4375 C 121.578125 98.015625 121.488281 99.597656 121.46875 101.1875 C 121.449219 102.773438 121.503906 104.359375 121.628906 105.941406 C 121.511719 107.441406 120.9375 108.734375 119.902344 109.824219 C 114.4375 116.253906 108.6875 122.445312 103.414062 129.003906 C 102.777344 129.941406 102.363281 130.96875 102.171875 132.082031 C 101.976562 133.195312 102.015625 134.300781 102.292969 135.398438 C 103.773438 139.9375 109.289062 140.128906 112.53125 136.097656 C 116.710938 130.875 120.964844 125.683594 125.464844 120.125 C 127.246094 123.714844 129.460938 127.015625 132.109375 130.023438 C 134.753906 133.035156 137.742188 135.652344 141.074219 137.882812 C 142.640625 138.910156 144.257812 139.847656 145.929688 140.695312 C 147.597656 141.542969 149.3125 142.292969 151.066406 142.949219 C 152.820312 143.605469 154.605469 144.15625 156.421875 144.613281 C 158.242188 145.066406 160.078125 145.417969 161.933594 145.664062 C 163.789062 145.914062 165.65625 146.054688 167.527344 146.09375 C 169.402344 146.132812 171.269531 146.066406 173.132812 145.894531 C 175 145.722656 176.847656 145.449219 178.683594 145.070312 C 180.519531 144.691406 182.324219 144.210938 184.105469 143.628906 C 195.785156 140.1875 207.085938 135.429688 218.574219 131.378906 C 220.003906 130.785156 221.46875 130.292969 222.960938 129.894531 C 224.457031 129.5 225.972656 129.203125 227.507812 129.011719 C 229.042969 128.820312 230.585938 128.730469 232.132812 128.746094 C 233.679688 128.757812 235.21875 128.878906 236.75 129.101562 C 238.28125 129.324219 239.792969 129.644531 241.277344 130.070312 C 242.765625 130.496094 244.21875 131.019531 245.636719 131.640625 C 247.054688 132.261719 248.421875 132.976562 249.742188 133.78125 C 251.066406 134.585938 252.324219 135.476562 253.527344 136.453125 Z M 179.921875 132.796875 C 178.105469 133.371094 176.253906 133.800781 174.367188 134.089844 C 172.484375 134.378906 170.589844 134.523438 168.683594 134.519531 C 166.777344 134.515625 164.882812 134.371094 162.996094 134.078125 C 161.113281 133.78125 159.265625 133.347656 157.445312 132.769531 C 155.628906 132.191406 153.867188 131.480469 152.160156 130.632812 C 150.453125 129.78125 148.820312 128.808594 147.265625 127.710938 C 145.707031 126.609375 144.242188 125.398438 142.871094 124.074219 C 141.5 122.75 140.238281 121.328125 139.085938 119.8125 C 137.570312 117.488281 136.191406 115.089844 134.941406 112.613281 C 151.863281 100.707031 169.617188 93.996094 190.195312 97.675781 C 194.921875 98.523438 197.839844 97.316406 198.796875 93.949219 C 199.839844 90.183594 197.710938 87.226562 193.171875 86.296875 C 189.402344 85.558594 185.597656 85.113281 181.761719 84.964844 C 177.921875 84.816406 174.09375 84.964844 170.28125 85.414062 C 166.464844 85.859375 162.707031 86.601562 159.007812 87.632812 C 155.308594 88.664062 151.710938 89.976562 148.214844 91.566406 C 143.355469 93.65625 138.707031 96.242188 133.640625 98.765625 C 133.761719 96.726562 134.039062 94.710938 134.472656 92.714844 C 134.902344 90.71875 135.488281 88.769531 136.21875 86.863281 C 136.953125 84.960938 137.828125 83.121094 138.84375 81.351562 C 139.859375 79.582031 141.007812 77.898438 142.28125 76.304688 C 143.558594 74.710938 144.949219 73.226562 146.457031 71.847656 C 147.960938 70.46875 149.5625 69.214844 151.261719 68.082031 C 152.960938 66.949219 154.734375 65.957031 156.589844 65.097656 C 158.441406 64.242188 160.347656 63.53125 162.308594 62.964844 C 164.371094 62.304688 166.460938 61.757812 168.582031 61.324219 C 170.703125 60.890625 172.84375 60.574219 175 60.375 C 177.152344 60.171875 179.3125 60.089844 181.480469 60.125 C 183.644531 60.160156 185.800781 60.3125 187.949219 60.582031 C 190.09375 60.851562 192.222656 61.238281 194.328125 61.742188 C 196.433594 62.242188 198.507812 62.855469 200.546875 63.582031 C 202.585938 64.3125 204.578125 65.148438 206.527344 66.089844 C 208.472656 67.035156 210.363281 68.082031 212.199219 69.234375 C 231.417969 80.722656 241.96875 98.652344 248.472656 119.066406 C 242.46875 118.460938 236.617188 117.429688 230.75 117.371094 C 221.445312 117.96875 212.566406 120.230469 204.113281 124.164062 C 196.082031 127.164062 188.152344 130.535156 179.921875 132.804688 Z M 364.679688 169.046875 C 364.382812 166.144531 364.011719 163.25 363.574219 160.363281 C 363.132812 157.476562 362.621094 154.605469 362.042969 151.746094 C 361.460938 148.882812 360.808594 146.039062 360.089844 143.210938 C 359.367188 140.382812 358.578125 137.574219 357.71875 134.785156 C 356.859375 131.992188 355.933594 129.226562 354.941406 126.480469 C 353.945312 123.738281 352.882812 121.019531 351.757812 118.328125 C 350.628906 115.636719 349.433594 112.972656 348.175781 110.339844 C 346.917969 107.703125 345.59375 105.105469 344.207031 102.535156 C 342.820312 99.964844 341.375 97.433594 339.863281 94.9375 C 338.351562 92.4375 336.78125 89.980469 335.148438 87.558594 C 333.519531 85.136719 331.828125 82.757812 330.078125 80.421875 C 328.332031 78.085938 326.527344 75.792969 324.667969 73.542969 C 322.804688 71.292969 320.890625 69.089844 318.921875 66.9375 C 316.953125 64.78125 314.929688 62.675781 312.859375 60.621094 C 310.785156 58.566406 308.664062 56.5625 306.496094 54.609375 C 304.324219 52.660156 302.105469 50.761719 299.84375 48.917969 C 297.578125 47.078125 295.269531 45.289062 292.917969 43.5625 C 290.566406 41.832031 288.175781 40.160156 285.742188 38.550781 C 283.308594 36.9375 280.835938 35.386719 278.328125 33.894531 C 275.816406 32.40625 273.273438 30.976562 270.691406 29.613281 C 268.113281 28.246094 265.5 26.945312 262.859375 25.707031 C 260.214844 24.46875 257.542969 23.296875 254.839844 22.191406 C 252.140625 21.085938 249.414062 20.046875 246.660156 19.074219 C 243.90625 18.101562 241.132812 17.199219 238.335938 16.363281 C 235.539062 15.527344 232.722656 14.757812 229.890625 14.0625 C 227.054688 13.363281 224.207031 12.734375 221.339844 12.175781 C 218.476562 11.621094 215.597656 11.132812 212.710938 10.714844 C 209.820312 10.300781 206.921875 9.953125 204.015625 9.679688 C 201.109375 9.40625 198.199219 9.203125 195.285156 9.070312 C 192.367188 8.9375 189.449219 8.878906 186.53125 8.890625 C 183.613281 8.902344 180.695312 8.984375 177.78125 9.140625 C 174.867188 9.296875 171.957031 9.523438 169.054688 9.820312 C 166.148438 10.117188 163.253906 10.488281 160.367188 10.925781 C 157.484375 11.367188 154.609375 11.878906 151.75 12.457031 C 148.890625 13.039062 146.042969 13.691406 143.214844 14.410156 C 140.386719 15.132812 137.578125 15.921875 134.789062 16.78125 C 132 17.636719 129.230469 18.566406 126.488281 19.558594 C 123.742188 20.554688 121.023438 21.613281 118.332031 22.742188 C 115.640625 23.871094 112.976562 25.0625 110.34375 26.324219 C 107.710938 27.582031 105.109375 28.902344 102.539062 30.289062 C 99.972656 31.675781 97.4375 33.125 94.941406 34.636719 C 92.441406 36.144531 89.984375 37.71875 87.5625 39.347656 C 85.144531 40.980469 82.765625 42.667969 80.425781 44.417969 C 78.089844 46.167969 75.796875 47.972656 73.546875 49.832031 C 71.296875 51.691406 69.097656 53.609375 66.941406 55.578125 C 64.785156 57.546875 62.679688 59.566406 60.625 61.636719 C 58.570312 63.710938 56.566406 65.832031 54.613281 68.003906 C 52.664062 70.171875 50.765625 72.390625 48.921875 74.65625 C 47.082031 76.917969 45.292969 79.226562 43.566406 81.578125 C 41.835938 83.929688 40.164062 86.320312 38.554688 88.753906 C 36.941406 91.1875 35.390625 93.660156 33.898438 96.167969 C 32.410156 98.679688 30.980469 101.222656 29.613281 103.804688 C 28.25 106.382812 26.949219 108.996094 25.710938 111.640625 C 24.472656 114.28125 23.300781 116.957031 22.195312 119.65625 C 21.089844 122.359375 20.050781 125.085938 19.078125 127.835938 C 18.105469 130.589844 17.199219 133.363281 16.363281 136.160156 C 15.527344 138.957031 14.761719 141.773438 14.0625 144.605469 C 13.367188 147.441406 12.738281 150.289062 12.179688 153.15625 C 11.621094 156.019531 11.132812 158.898438 10.71875 161.785156 C 10.300781 164.675781 9.957031 167.574219 9.679688 170.480469 C 9.40625 173.386719 9.203125 176.296875 9.070312 179.210938 C 8.941406 182.128906 8.878906 185.046875 8.890625 187.964844 C 8.902344 190.882812 8.988281 193.800781 9.140625 196.714844 C 9.296875 199.628906 9.523438 202.539062 9.820312 205.441406 C 10.117188 208.347656 10.488281 211.242188 10.925781 214.128906 C 11.367188 217.011719 11.878906 219.886719 12.457031 222.746094 C 13.039062 225.605469 13.691406 228.453125 14.410156 231.28125 C 15.132812 234.109375 15.921875 236.917969 16.78125 239.707031 C 17.636719 242.496094 18.566406 245.265625 19.558594 248.007812 C 20.554688 250.753906 21.613281 253.472656 22.742188 256.164062 C 23.871094 258.855469 25.0625 261.519531 26.320312 264.152344 C 27.582031 266.785156 28.902344 269.386719 30.289062 271.957031 C 31.675781 274.527344 33.125 277.058594 34.632812 279.554688 C 36.144531 282.054688 37.714844 284.511719 39.347656 286.933594 C 40.980469 289.355469 42.667969 291.734375 44.417969 294.070312 C 46.164062 296.410156 47.96875 298.703125 49.832031 300.949219 C 51.691406 303.199219 53.605469 305.402344 55.574219 307.554688 C 57.542969 309.710938 59.5625 311.816406 61.636719 313.871094 C 63.707031 315.929688 65.832031 317.933594 68 319.882812 C 70.171875 321.835938 72.390625 323.730469 74.652344 325.574219 C 76.917969 327.417969 79.222656 329.203125 81.574219 330.933594 C 83.925781 332.664062 86.320312 334.332031 88.753906 335.945312 C 91.1875 337.558594 93.65625 339.109375 96.167969 340.597656 C 98.675781 342.089844 101.222656 343.519531 103.800781 344.882812 C 106.382812 346.25 108.992188 347.550781 111.636719 348.789062 C 114.28125 350.027344 116.953125 351.199219 119.652344 352.304688 C 122.355469 353.410156 125.082031 354.449219 127.835938 355.421875 C 130.585938 356.394531 133.359375 357.296875 136.15625 358.136719 C 138.953125 358.972656 141.769531 359.738281 144.605469 360.4375 C 147.4375 361.132812 150.289062 361.761719 153.152344 362.320312 C 156.019531 362.878906 158.894531 363.367188 161.785156 363.78125 C 164.671875 364.199219 167.570312 364.542969 170.476562 364.820312 C 173.382812 365.09375 176.292969 365.296875 179.210938 365.429688 C 182.125 365.558594 185.042969 365.621094 187.960938 365.609375 C 190.882812 365.597656 193.796875 365.511719 196.710938 365.359375 C 199.628906 365.203125 202.535156 364.976562 205.441406 364.679688 C 208.34375 364.378906 211.234375 364.007812 214.121094 363.5625 C 217.003906 363.121094 219.875 362.609375 222.734375 362.023438 C 225.59375 361.441406 228.4375 360.789062 231.265625 360.0625 C 234.09375 359.339844 236.898438 358.550781 239.6875 357.6875 C 242.476562 356.828125 245.242188 355.898438 247.984375 354.902344 C 250.726562 353.90625 253.445312 352.84375 256.132812 351.714844 C 258.824219 350.585938 261.488281 349.390625 264.117188 348.128906 C 266.75 346.871094 269.351562 345.546875 271.917969 344.160156 C 274.484375 342.773438 277.015625 341.324219 279.511719 339.8125 C 282.007812 338.300781 284.464844 336.730469 286.886719 335.097656 C 289.304688 333.464844 291.683594 331.773438 294.019531 330.027344 C 296.355469 328.277344 298.644531 326.472656 300.894531 324.613281 C 303.140625 322.75 305.34375 320.835938 307.496094 318.867188 C 309.652344 316.898438 311.753906 314.878906 313.808594 312.808594 C 315.863281 310.734375 317.867188 308.613281 319.816406 306.445312 C 321.769531 304.273438 323.664062 302.058594 325.507812 299.792969 C 327.351562 297.53125 329.136719 295.222656 330.863281 292.875 C 332.59375 290.523438 334.265625 288.132812 335.875 285.699219 C 337.488281 283.265625 339.039062 280.796875 340.53125 278.289062 C 342.019531 275.777344 343.449219 273.234375 344.816406 270.65625 C 346.179688 268.078125 347.484375 265.46875 348.722656 262.824219 C 349.960938 260.183594 351.132812 257.511719 352.238281 254.8125 C 353.347656 252.113281 354.386719 249.386719 355.359375 246.636719 C 356.332031 243.882812 357.238281 241.109375 358.078125 238.316406 C 358.914062 235.519531 359.683594 232.707031 360.382812 229.875 C 361.082031 227.039062 361.710938 224.191406 362.269531 221.328125 C 362.832031 218.464844 363.320312 215.589844 363.738281 212.699219 C 364.160156 209.8125 364.507812 206.917969 364.785156 204.011719 C 365.058594 201.105469 365.265625 198.195312 365.398438 195.28125 C 365.535156 192.367188 365.597656 189.449219 365.589844 186.53125 C 365.582031 183.613281 365.5 180.699219 365.347656 177.785156 C 365.195312 174.871094 364.972656 171.960938 364.679688 169.058594 Z M 204.109375 351.691406 C 198.746094 352.242188 193.367188 352.527344 187.976562 352.550781 C 182.585938 352.574219 177.207031 352.335938 171.839844 351.828125 C 166.472656 351.324219 161.144531 350.558594 155.851562 349.53125 C 150.558594 348.5 145.332031 347.214844 140.164062 345.675781 C 135 344.132812 129.921875 342.339844 124.933594 340.300781 C 119.941406 338.257812 115.066406 335.976562 110.296875 333.457031 C 105.53125 330.9375 100.902344 328.191406 96.40625 325.214844 C 91.910156 322.242188 87.570312 319.054688 83.386719 315.652344 L 73.578125 307.050781 C 71.707031 305.277344 69.875 303.460938 68.089844 301.601562 C 66.300781 299.742188 64.558594 297.839844 62.859375 295.902344 C 61.160156 293.960938 59.507812 291.980469 57.902344 289.960938 C 56.296875 287.941406 54.738281 285.886719 53.230469 283.796875 C 51.71875 281.703125 50.257812 279.578125 48.847656 277.417969 C 47.4375 275.257812 46.082031 273.066406 44.773438 270.84375 C 43.464844 268.621094 42.210938 266.367188 41.007812 264.085938 C 39.808594 261.800781 38.660156 259.492188 37.566406 257.15625 C 36.472656 254.820312 35.433594 252.460938 34.453125 250.074219 C 33.46875 247.691406 32.542969 245.285156 31.671875 242.855469 C 30.800781 240.429688 29.988281 237.980469 29.234375 235.515625 C 28.476562 233.046875 27.78125 230.566406 27.140625 228.066406 C 26.5 225.566406 25.921875 223.054688 25.398438 220.53125 C 24.878906 218.003906 24.417969 215.464844 24.011719 212.917969 C 23.609375 210.371094 23.269531 207.816406 22.984375 205.25 C 22.703125 202.6875 22.480469 200.117188 22.316406 197.542969 C 22.15625 194.96875 22.050781 192.394531 22.011719 189.8125 C 21.96875 187.234375 21.988281 184.65625 22.066406 182.078125 C 22.144531 179.5 22.285156 176.925781 22.484375 174.351562 C 22.683594 171.78125 22.945312 169.214844 23.265625 166.65625 C 23.582031 164.097656 23.964844 161.546875 24.402344 159.003906 C 24.84375 156.464844 25.339844 153.933594 25.898438 151.414062 C 26.457031 148.894531 27.074219 146.390625 27.75 143.902344 C 28.425781 141.414062 29.15625 138.941406 29.949219 136.484375 C 30.738281 134.03125 31.585938 131.597656 32.492188 129.179688 C 33.398438 126.765625 34.359375 124.371094 35.375 122.003906 C 36.394531 119.632812 37.464844 117.285156 38.59375 114.964844 C 39.722656 112.648438 40.902344 110.355469 42.136719 108.089844 C 43.371094 105.824219 44.65625 103.589844 45.996094 101.386719 C 47.335938 99.179688 48.726562 97.007812 50.167969 94.871094 C 51.609375 92.730469 53.097656 90.625 54.640625 88.558594 C 56.179688 86.488281 57.765625 84.457031 59.402344 82.460938 C 61.035156 80.464844 62.714844 78.507812 64.441406 76.59375 C 66.167969 74.675781 67.941406 72.800781 69.753906 70.96875 C 71.570312 69.136719 73.425781 67.34375 75.324219 65.597656 C 77.222656 63.851562 79.160156 62.152344 81.136719 60.496094 C 83.117188 58.839844 85.132812 57.230469 87.183594 55.671875 C 89.238281 54.109375 91.328125 52.597656 93.453125 51.132812 C 95.574219 49.671875 97.734375 48.257812 99.921875 46.894531 C 102.113281 45.535156 104.335938 44.222656 106.585938 42.964844 C 108.839844 41.707031 111.117188 40.503906 113.425781 39.351562 C 115.734375 38.199219 118.066406 37.101562 120.429688 36.0625 C 122.789062 35.019531 125.171875 34.03125 127.574219 33.101562 C 129.980469 32.171875 132.40625 31.300781 134.855469 30.484375 C 137.300781 29.664062 139.765625 28.90625 142.25 28.207031 C 144.730469 27.503906 147.226562 26.863281 149.742188 26.277344 C 152.253906 25.695312 154.777344 25.167969 157.316406 24.703125 C 159.851562 24.238281 162.398438 23.832031 164.953125 23.484375 C 167.511719 23.136719 170.074219 22.851562 172.640625 22.625 C 175.210938 22.398438 177.785156 22.230469 180.363281 22.125 C 182.9375 22.019531 185.519531 21.976562 188.097656 21.988281 C 190.675781 22.003906 193.253906 22.082031 195.828125 22.214844 C 198.40625 22.351562 200.976562 22.546875 203.542969 22.804688 C 206.109375 23.058594 208.667969 23.375 211.222656 23.753906 C 213.773438 24.128906 216.316406 24.5625 218.847656 25.058594 C 221.378906 25.554688 223.894531 26.109375 226.402344 26.722656 C 228.90625 27.335938 231.398438 28.007812 233.871094 28.738281 C 236.34375 29.464844 238.800781 30.253906 241.238281 31.097656 C 243.675781 31.945312 246.089844 32.84375 248.484375 33.804688 C 250.878906 34.761719 253.25 35.773438 255.597656 36.84375 C 257.945312 37.914062 260.265625 39.035156 262.5625 40.214844 C 264.855469 41.394531 267.121094 42.625 269.359375 43.90625 C 271.597656 45.191406 273.800781 46.527344 275.976562 47.914062 C 278.152344 49.304688 280.292969 50.742188 282.398438 52.226562 L 292.765625 60.140625 C 295.878906 62.71875 298.894531 65.410156 301.808594 68.210938 C 304.722656 71.011719 307.53125 73.914062 310.234375 76.921875 C 312.9375 79.929688 315.523438 83.03125 318 86.226562 C 320.472656 89.421875 322.828125 92.707031 325.058594 96.074219 C 327.292969 99.445312 329.398438 102.890625 331.378906 106.417969 C 333.359375 109.941406 335.210938 113.53125 336.925781 117.191406 C 338.640625 120.851562 340.222656 124.570312 341.664062 128.347656 C 343.109375 132.121094 344.414062 135.945312 345.574219 139.816406 C 346.738281 143.6875 347.757812 147.597656 348.632812 151.542969 C 349.511719 155.492188 350.242188 159.464844 350.824219 163.464844 C 351.410156 167.464844 351.847656 171.480469 352.136719 175.511719 C 352.425781 179.542969 352.566406 183.582031 352.558594 187.625 C 352.554688 191.664062 352.398438 195.703125 352.09375 199.734375 C 351.792969 203.765625 351.339844 207.777344 350.742188 211.777344 C 350.144531 215.773438 349.402344 219.746094 348.511719 223.6875 C 347.621094 227.632812 346.589844 231.539062 345.414062 235.40625 C 344.238281 239.273438 342.921875 243.09375 341.464844 246.863281 C 340.007812 250.632812 338.414062 254.347656 336.6875 258 C 334.957031 261.65625 333.097656 265.242188 331.105469 268.757812 C 329.113281 272.273438 326.996094 275.714844 324.75 279.078125 C 322.503906 282.4375 320.140625 285.714844 317.65625 288.902344 C 315.167969 292.089844 312.570312 295.183594 309.859375 298.179688 C 307.144531 301.179688 304.328125 304.074219 301.402344 306.863281 C 298.480469 309.652344 295.457031 312.332031 292.335938 314.902344 C 289.210938 317.46875 286 319.921875 282.699219 322.253906 C 279.398438 324.585938 276.015625 326.796875 272.554688 328.878906 C 269.089844 330.964844 265.554688 332.921875 261.949219 334.746094 C 258.339844 336.570312 254.671875 338.261719 250.941406 339.816406 C 247.210938 341.371094 243.425781 342.789062 239.589844 344.066406 C 235.757812 345.34375 231.878906 346.480469 227.960938 347.476562 C 224.042969 348.46875 220.09375 349.316406 216.113281 350.019531 C 212.132812 350.722656 208.128906 351.28125 204.109375 351.691406 Z M 204.109375 351.691406 " fill-opacity="1" fill-rule="nonzero"/></svg>