<svg xmlns="http://www.w3.org/2000/svg" xmlns:xlink="http://www.w3.org/1999/xlink" width="581" zoomAndPan="magnify" viewBox="0 0 435.75 292.499991" height="390" preserveAspectRatio="xMidYMid meet" version="1.0"><defs><clipPath id="e8929d57ec"><path d="M 1 0.546875 L 434 0.546875 L 434 291.796875 L 1 291.796875 Z M 1 0.546875 " clip-rule="nonzero"/></clipPath></defs><g clip-path="url(#e8929d57ec)"><path fill="#593a23" d="M 195.328125 263.335938 L 240.089844 263.335938 C 243.765625 258.976562 246.976562 254.566406 249.75 250.113281 C 251.417969 247.421875 252.941406 244.710938 254.296875 241.996094 L 181.121094 241.996094 C 182.480469 244.710938 184 247.421875 185.671875 250.113281 C 188.441406 254.566406 191.65625 258.976562 195.328125 263.335938 Z M 243.03125 268.113281 L 243.03125 268.679688 L 242.535156 268.679688 C 242.53125 268.679688 242.53125 268.679688 242.53125 268.679688 C 236.078125 276.058594 228.367188 283.257812 219.339844 290.207031 L 217.710938 291.460938 L 216.082031 290.207031 C 200.714844 278.386719 189.183594 265.835938 181.144531 252.929688 C 169.757812 234.652344 165.386719 215.671875 167.078125 197.050781 C 168.761719 178.492188 176.484375 160.355469 189.308594 143.6875 C 196.011719 134.980469 204.09375 126.667969 213.441406 118.921875 C 213.441406 118.921875 213.441406 118.921875 213.441406 118.917969 C 208.394531 115.035156 203.015625 111.304688 197.304688 107.75 C 195.882812 106.863281 194.441406 105.992188 192.992188 105.125 C 189.5625 116.363281 184.375 126.757812 177.996094 136.144531 C 168.839844 149.625 157.234375 160.976562 144.917969 169.699219 C 132.570312 178.4375 119.484375 184.527344 107.410156 187.445312 C 87.628906 192.21875 70.417969 188.53125 62.921875 174.195312 C 60.824219 170.183594 60.175781 166.316406 60.699219 162.625 C 61.351562 157.992188 63.828125 153.761719 67.582031 149.949219 C 69.199219 148.304688 71.066406 146.738281 73.132812 145.25 C 73.132812 145.246094 73.132812 145.246094 73.132812 145.246094 C 59.65625 144.574219 46.207031 142.503906 34.726562 138.738281 C 21.441406 134.375 10.675781 127.710938 5.246094 118.25 C 1.652344 111.996094 0.410156 104.609375 2.320312 95.960938 C 3.238281 91.804688 4.777344 88.035156 6.875 84.671875 C 14.375 72.640625 28.886719 65.578125 47.46875 62.902344 C 65.597656 60.292969 87.726562 61.824219 110.996094 66.96875 C 137.085938 72.726562 164.636719 83.003906 189.628906 97.011719 C 195.84375 70.125 191.382812 38.648438 168.207031 5.03125 C 167.425781 3.90625 167.695312 2.367188 168.804688 1.570312 L 169.078125 1.378906 C 170.210938 0.574219 171.789062 0.84375 172.582031 1.988281 C 181.378906 14.75 187.582031 27.210938 191.609375 39.269531 C 192.949219 35.519531 195.101562 32.160156 197.863281 29.402344 C 202.660156 24.605469 209.296875 21.625 216.628906 21.625 C 223.949219 21.625 230.589844 24.605469 235.386719 29.402344 C 239.015625 33.023438 241.601562 37.710938 242.648438 42.933594 C 246.597656 29.746094 253.144531 16.046875 262.835938 1.996094 C 263.628906 0.847656 265.210938 0.574219 266.347656 1.378906 L 266.613281 1.570312 C 267.726562 2.367188 267.992188 3.90625 267.21875 5.03125 C 244.039062 38.648438 239.582031 70.125 245.800781 97.011719 C 270.785156 83.003906 298.34375 72.726562 324.425781 66.96875 C 347.699219 61.824219 369.824219 60.292969 387.949219 62.902344 C 406.539062 65.578125 421.046875 72.640625 428.542969 84.671875 C 430.640625 88.035156 432.179688 91.804688 433.097656 95.960938 C 435.007812 104.609375 433.765625 111.996094 430.175781 118.25 C 424.742188 127.710938 413.976562 134.375 400.699219 138.738281 C 389.210938 142.503906 375.773438 144.574219 362.285156 145.246094 C 362.285156 145.246094 362.285156 145.246094 362.285156 145.25 C 364.351562 146.738281 366.21875 148.304688 367.839844 149.949219 C 371.601562 153.761719 374.070312 157.992188 374.722656 162.625 C 375.242188 166.316406 374.59375 170.183594 372.5 174.195312 C 365 188.53125 347.789062 192.21875 328.011719 187.445312 C 315.9375 184.527344 302.847656 178.4375 290.503906 169.699219 C 278.1875 160.976562 266.578125 149.621094 257.421875 136.144531 C 251.042969 126.757812 245.855469 116.363281 242.425781 105.125 C 240.984375 105.992188 239.539062 106.863281 238.113281 107.75 C 232.40625 111.304688 227.03125 115.035156 221.980469 118.917969 C 221.980469 118.921875 221.980469 118.921875 221.980469 118.921875 C 231.328125 126.675781 239.410156 134.980469 246.109375 143.6875 C 258.933594 160.355469 266.660156 178.492188 268.347656 197.050781 C 268.757812 201.605469 268.808594 206.175781 268.484375 210.765625 L 268.484375 211.226562 L 268.449219 211.226562 C 267.671875 221.335938 265.070312 231.472656 260.472656 241.460938 L 260.472656 241.84375 C 260.472656 241.929688 260.402344 241.996094 260.316406 241.996094 C 260.257812 241.996094 260.207031 242.03125 260.179688 242.085938 C 258.480469 245.726562 256.511719 249.34375 254.277344 252.929688 C 251.085938 258.050781 247.339844 263.125 243.03125 268.113281 Z M 235.339844 268.679688 L 200.082031 268.679688 C 205.207031 274.144531 211.074219 279.5 217.710938 284.722656 C 224.347656 279.5 230.210938 274.144531 235.339844 268.679688 Z M 197.214844 66.269531 C 198.160156 78.03125 197.097656 89.253906 194.472656 99.800781 C 196.371094 100.914062 198.257812 102.058594 200.125 103.21875 C 206.363281 107.109375 212.234375 111.199219 217.710938 115.476562 C 223.183594 111.199219 229.054688 107.109375 235.304688 103.21875 C 237.164062 102.058594 239.046875 100.914062 240.949219 99.800781 C 238.09375 88.351562 237.085938 76.078125 238.5 63.191406 C 237.574219 64.535156 236.535156 65.78125 235.386719 66.929688 C 230.589844 71.738281 223.949219 74.707031 216.628906 74.707031 C 209.296875 74.707031 202.660156 71.738281 197.863281 66.929688 C 197.644531 66.710938 197.425781 66.484375 197.214844 66.269531 Z M 173.59375 133.167969 C 179.902344 123.886719 184.988281 113.550781 188.234375 102.355469 C 163.378906 88.238281 135.863281 77.902344 109.851562 72.167969 C 87.203125 67.167969 65.738281 65.664062 48.222656 68.183594 C 31.179688 70.640625 17.996094 76.90625 11.40625 87.492188 C 9.613281 90.371094 8.300781 93.574219 7.519531 97.109375 C 5.917969 104.335938 6.933594 110.464844 9.878906 115.597656 C 14.582031 123.800781 24.285156 129.699219 36.378906 133.664062 C 48.820312 137.746094 63.703125 139.757812 78.355469 140.109375 C 79.386719 140.132812 80.4375 140.148438 81.476562 140.164062 C 100.433594 130.300781 128.117188 125.269531 142.128906 127.246094 L 147.460938 128.003906 L 143.636719 131.789062 C 135.21875 140.109375 109.746094 145.53125 82.78125 145.496094 C 78.257812 147.953125 74.332031 150.691406 71.382812 153.6875 C 68.402344 156.707031 66.457031 159.949219 65.976562 163.355469 C 65.601562 165.980469 66.097656 168.773438 67.644531 171.734375 C 73.84375 183.585938 88.777344 186.457031 106.152344 182.261719 C 117.613281 179.5 130.0625 173.6875 141.851562 165.355469 C 153.671875 156.996094 164.8125 146.085938 173.59375 133.167969 Z M 133.457031 132.15625 C 122.765625 132.402344 108.429688 135.113281 95.617188 139.789062 C 111.125 138.832031 124.941406 136.101562 133.457031 132.15625 Z M 241.894531 146.941406 C 235.230469 138.273438 227.121094 130.011719 217.710938 122.304688 C 208.296875 130.011719 200.1875 138.273438 193.523438 146.941406 C 192.117188 148.765625 190.773438 150.617188 189.496094 152.488281 C 189.496094 152.488281 189.496094 152.488281 189.5 152.488281 L 245.921875 152.488281 C 244.644531 150.617188 243.304688 148.765625 241.894531 146.941406 Z M 186.042969 157.828125 C 181.164062 165.847656 177.5 174.136719 175.144531 182.570312 L 260.277344 182.570312 C 257.929688 174.136719 254.257812 165.847656 249.378906 157.828125 Z M 173.828125 187.914062 C 173.152344 191.109375 172.667969 194.316406 172.378906 197.53125 C 172.128906 200.304688 172.019531 203.09375 172.054688 205.878906 L 263.367188 205.878906 C 263.40625 203.09375 263.300781 200.304688 263.042969 197.53125 C 262.753906 194.316406 262.265625 191.109375 261.59375 187.914062 Z M 172.316406 211.226562 C 173.011719 219.707031 175.097656 228.21875 178.660156 236.65625 L 256.761719 236.65625 C 260.320312 228.21875 262.410156 219.707031 263.101562 211.226562 Z M 325.574219 72.167969 C 299.5625 77.902344 272.039062 88.238281 247.183594 102.355469 C 250.429688 113.550781 255.519531 123.886719 261.832031 133.167969 C 270.605469 146.085938 281.746094 156.996094 293.574219 165.355469 C 305.355469 173.6875 317.816406 179.5 329.265625 182.261719 C 346.644531 186.457031 361.585938 183.585938 367.78125 171.734375 C 369.332031 168.773438 369.816406 165.980469 369.449219 163.355469 C 368.960938 159.949219 367.015625 156.707031 364.042969 153.6875 C 361.097656 150.691406 357.167969 147.953125 352.636719 145.496094 C 325.683594 145.53125 300.203125 140.109375 291.789062 131.789062 L 287.960938 128.003906 L 293.289062 127.246094 C 307.308594 125.269531 334.992188 130.300781 353.945312 140.164062 C 354.984375 140.148438 356.03125 140.132812 357.070312 140.109375 C 371.726562 139.757812 386.609375 137.746094 399.050781 133.664062 C 411.140625 129.699219 420.835938 123.800781 425.539062 115.597656 C 428.492188 110.464844 429.5 104.335938 427.898438 97.109375 C 427.125 93.574219 425.808594 90.371094 424.015625 87.492188 C 417.421875 76.90625 404.25 70.640625 387.199219 68.183594 C 369.679688 65.664062 348.214844 67.167969 325.574219 72.167969 Z M 301.96875 132.15625 C 310.480469 136.101562 324.304688 138.832031 339.796875 139.789062 C 326.988281 135.113281 312.652344 132.402344 301.96875 132.15625 Z M 231.609375 33.179688 C 227.773438 29.339844 222.480469 26.96875 216.628906 26.96875 C 210.769531 26.96875 205.472656 29.339844 201.636719 33.179688 C 197.800781 37.011719 195.429688 42.3125 195.429688 48.167969 C 195.429688 54.019531 197.800781 59.320312 201.636719 63.152344 C 205.472656 66.988281 210.769531 69.359375 216.628906 69.359375 C 222.480469 69.359375 227.773438 66.988281 231.609375 63.152344 C 235.449219 59.320312 237.816406 54.019531 237.816406 48.167969 C 237.816406 42.3125 235.449219 37.011719 231.609375 33.179688 " fill-opacity="1" fill-rule="nonzero"/></g></svg>