<svg xmlns="http://www.w3.org/2000/svg" xmlns:xlink="http://www.w3.org/1999/xlink" width="500" zoomAndPan="magnify" viewBox="0 0 375 374.999991" height="500" preserveAspectRatio="xMidYMid meet" version="1.0"><defs><clipPath id="43559001f6"><path d="M 16.363281 167 L 173 167 L 173 375 L 16.363281 375 Z M 16.363281 167 " clip-rule="nonzero"/></clipPath><clipPath id="7e88b889c0"><path d="M 16.363281 167 L 173 167 L 173 220 L 16.363281 220 Z M 16.363281 167 " clip-rule="nonzero"/></clipPath><clipPath id="2fd2fa2e58"><path d="M 200 209 L 358.363281 209 L 358.363281 373 L 200 373 Z M 200 209 " clip-rule="nonzero"/></clipPath><clipPath id="04be52668d"><path d="M 200 319 L 358.363281 319 L 358.363281 373 L 200 373 Z M 200 319 " clip-rule="nonzero"/></clipPath></defs><path fill="#7a0036" d="M 140.777344 203.828125 L 48.78125 203.828125 L 48.78125 55.332031 L 140.777344 18.636719 L 140.777344 203.828125 " fill-opacity="1" fill-rule="nonzero"/><g clip-path="url(#43559001f6)"><path fill="#494c50" d="M 172.875 364.421875 C 172.875 370.21875 168.175781 374.917969 162.378906 374.917969 L 27.183594 374.917969 C 21.386719 374.917969 16.667969 370.21875 16.667969 364.421875 L 16.667969 178.035156 C 16.667969 172.238281 21.386719 167.523438 27.183594 167.523438 L 162.378906 167.523438 C 168.175781 167.523438 172.875 172.238281 172.875 178.035156 L 172.875 364.421875 " fill-opacity="1" fill-rule="nonzero"/></g><g clip-path="url(#7e88b889c0)"><path fill="#47001f" d="M 172.875 219.644531 L 172.875 178.035156 C 172.875 172.238281 168.175781 167.523438 162.378906 167.523438 L 27.183594 167.523438 C 21.386719 167.523438 16.667969 172.238281 16.667969 178.035156 L 16.667969 219.644531 L 172.875 219.644531 " fill-opacity="1" fill-rule="nonzero"/></g><g clip-path="url(#2fd2fa2e58)"><path fill="#494c50" d="M 200.027344 220.25 C 200.027344 214.355469 204.789062 209.589844 210.667969 209.589844 L 347.832031 209.589844 C 353.710938 209.589844 358.476562 214.355469 358.476562 220.25 L 358.476562 361.785156 C 358.476562 367.664062 353.710938 372.429688 347.832031 372.429688 L 210.667969 372.429688 C 204.789062 372.429688 200.027344 367.664062 200.027344 361.785156 L 200.027344 220.25 " fill-opacity="1" fill-rule="nonzero"/></g><g clip-path="url(#04be52668d)"><path fill="#47001f" d="M 200.027344 319.550781 L 200.027344 361.785156 C 200.027344 367.664062 204.789062 372.429688 210.667969 372.429688 L 347.832031 372.429688 C 353.710938 372.429688 358.476562 367.664062 358.476562 361.785156 L 358.476562 319.550781 L 200.027344 319.550781 " fill-opacity="1" fill-rule="nonzero"/></g><path fill="#c60057" d="M 139.140625 12.019531 C 145.839844 24.105469 131.414062 44.917969 106.914062 58.492188 C 82.398438 72.085938 57.101562 73.28125 50.402344 61.195312 C 43.6875 49.109375 58.132812 28.296875 82.644531 14.722656 C 107.144531 1.132812 132.445312 -0.078125 139.140625 12.019531 " fill-opacity="1" fill-rule="nonzero"/><path fill="#7a0036" d="M 287.210938 92.40625 C 280.296875 82.074219 265.988281 80.011719 253.589844 86.886719 C 260.484375 74.507812 258.421875 60.195312 248.089844 53.285156 C 236.542969 45.589844 219.085938 50.027344 209.097656 63.210938 C 204.039062 69.890625 201.941406 78.847656 203.070312 89.933594 C 203.070312 89.933594 208.460938 128.382812 209.6875 130.808594 C 212.109375 132.035156 250.5625 137.40625 250.5625 137.40625 C 261.628906 138.554688 270.605469 136.457031 277.285156 131.398438 C 290.46875 121.390625 294.90625 103.933594 287.210938 92.40625 " fill-opacity="1" fill-rule="nonzero"/></svg>