<svg xmlns="http://www.w3.org/2000/svg" xmlns:xlink="http://www.w3.org/1999/xlink" stroke-width="10" width="581" zoomAndPan="magnify" viewBox="0 0 435.75 292.499991" height="390" preserveAspectRatio="xMidYMid meet" version="1.0"><defs><clipPath id="c69837843b"><path d="M 1 0.546875 L 434 0.546875 L 434 291.796875 L 1 291.796875 Z M 1 0.546875 " clip-rule="nonzero"/></clipPath></defs><g clip-path="url(#c69837843b)"><path fill="#000000" d="M 195.328125 263.652344 L 240.089844 263.652344 C 243.765625 259.285156 246.976562 254.871094 249.75 250.414062 C 251.417969 247.722656 252.941406 245.003906 254.296875 242.289062 L 181.121094 242.289062 C 182.480469 245.003906 184 247.722656 185.671875 250.414062 C 188.441406 254.871094 191.65625 259.285156 195.328125 263.652344 Z M 243.03125 268.4375 L 243.03125 269.003906 L 242.535156 269.003906 C 242.53125 269.003906 242.53125 269.003906 242.53125 269.003906 C 236.078125 276.390625 228.367188 283.601562 219.339844 290.558594 L 217.710938 291.8125 L 216.082031 290.558594 C 200.714844 278.71875 189.183594 266.15625 181.144531 253.234375 C 169.757812 234.933594 165.386719 215.933594 167.078125 197.289062 C 168.761719 178.707031 176.484375 160.550781 189.308594 143.859375 C 196.011719 135.140625 204.09375 126.820312 213.441406 119.0625 C 213.441406 119.0625 213.441406 119.0625 213.441406 119.058594 C 208.394531 115.171875 203.015625 111.4375 197.304688 107.878906 C 195.882812 106.988281 194.441406 106.117188 192.992188 105.25 C 189.5625 116.503906 184.375 126.910156 177.996094 136.308594 C 168.839844 149.804688 157.234375 161.167969 144.917969 169.902344 C 132.570312 178.652344 119.484375 184.75 107.410156 187.667969 C 87.628906 192.449219 70.417969 188.757812 62.921875 174.40625 C 60.824219 170.386719 60.175781 166.519531 60.699219 162.820312 C 61.351562 158.179688 63.828125 153.945312 67.582031 150.128906 C 69.199219 148.484375 71.066406 146.914062 73.132812 145.425781 C 73.132812 145.417969 73.132812 145.417969 73.132812 145.417969 C 59.65625 144.746094 46.207031 142.675781 34.726562 138.902344 C 21.441406 134.535156 10.675781 127.867188 5.246094 118.390625 C 1.652344 112.132812 0.410156 104.734375 2.320312 96.078125 C 3.238281 91.914062 4.777344 88.140625 6.875 84.773438 C 14.375 72.726562 28.886719 65.65625 47.46875 62.976562 C 65.597656 60.363281 87.726562 61.898438 110.996094 67.050781 C 137.085938 72.816406 164.636719 83.101562 189.628906 97.128906 C 195.84375 70.210938 191.382812 38.695312 168.207031 5.035156 C 167.425781 3.910156 167.695312 2.371094 168.804688 1.570312 L 169.078125 1.382812 C 170.210938 0.574219 171.789062 0.84375 172.582031 1.992188 C 181.378906 14.769531 187.582031 27.242188 191.609375 39.316406 C 192.949219 35.5625 195.101562 32.195312 197.863281 29.4375 C 202.660156 24.632812 209.296875 21.652344 216.628906 21.652344 C 223.949219 21.652344 230.589844 24.632812 235.386719 29.4375 C 239.015625 33.0625 241.601562 37.753906 242.648438 42.984375 C 246.597656 29.78125 253.144531 16.066406 262.835938 1.996094 C 263.628906 0.847656 265.210938 0.574219 266.347656 1.382812 L 266.613281 1.570312 C 267.726562 2.371094 267.992188 3.910156 267.21875 5.035156 C 244.039062 38.695312 239.582031 70.210938 245.800781 97.128906 C 270.785156 83.101562 298.34375 72.816406 324.425781 67.050781 C 347.699219 61.898438 369.824219 60.363281 387.949219 62.976562 C 406.539062 65.65625 421.046875 72.726562 428.542969 84.773438 C 430.640625 88.140625 432.179688 91.914062 433.097656 96.078125 C 435.007812 104.734375 433.765625 112.132812 430.175781 118.390625 C 424.742188 127.867188 413.976562 134.535156 400.699219 138.902344 C 389.210938 142.675781 375.773438 144.746094 362.285156 145.417969 C 362.285156 145.417969 362.285156 145.417969 362.285156 145.425781 C 364.351562 146.914062 366.21875 148.484375 367.839844 150.128906 C 371.601562 153.945312 374.070312 158.179688 374.722656 162.820312 C 375.242188 166.519531 374.59375 170.386719 372.5 174.40625 C 365 188.757812 347.789062 192.449219 328.011719 187.667969 C 315.9375 184.75 302.847656 178.652344 290.503906 169.902344 C 278.1875 161.167969 266.578125 149.800781 257.421875 136.308594 C 251.042969 126.910156 245.855469 116.503906 242.425781 105.25 C 240.984375 106.117188 239.539062 106.988281 238.113281 107.878906 C 232.40625 111.4375 227.03125 115.171875 221.980469 119.058594 C 221.980469 119.0625 221.980469 119.0625 221.980469 119.0625 C 231.328125 126.828125 239.410156 135.140625 246.109375 143.859375 C 258.933594 160.550781 266.660156 178.707031 268.347656 197.289062 C 268.757812 201.851562 268.808594 206.425781 268.484375 211.019531 L 268.484375 211.480469 L 268.449219 211.480469 C 267.671875 221.601562 265.070312 231.75 260.472656 241.75 L 260.472656 242.132812 C 260.472656 242.222656 260.402344 242.289062 260.316406 242.289062 C 260.257812 242.289062 260.207031 242.324219 260.179688 242.375 C 258.480469 246.023438 256.511719 249.644531 254.277344 253.234375 C 251.085938 258.363281 247.339844 263.441406 243.03125 268.4375 Z M 235.339844 269.003906 L 200.082031 269.003906 C 205.207031 274.472656 211.074219 279.839844 217.710938 285.066406 C 224.347656 279.839844 230.210938 274.472656 235.339844 269.003906 Z M 197.214844 66.347656 C 198.160156 78.125 197.097656 89.363281 194.472656 99.921875 C 196.371094 101.035156 198.257812 102.183594 200.125 103.34375 C 206.363281 107.238281 212.234375 111.332031 217.710938 115.617188 C 223.183594 111.332031 229.054688 107.238281 235.304688 103.34375 C 237.164062 102.183594 239.046875 101.035156 240.949219 99.921875 C 238.09375 88.457031 237.085938 76.171875 238.5 63.269531 C 237.574219 64.613281 236.535156 65.859375 235.386719 67.011719 C 230.589844 71.824219 223.949219 74.796875 216.628906 74.796875 C 209.296875 74.796875 202.660156 71.824219 197.863281 67.011719 C 197.644531 66.792969 197.425781 66.566406 197.214844 66.347656 Z M 173.59375 133.328125 C 179.902344 124.035156 184.988281 113.683594 188.234375 102.476562 C 163.378906 88.347656 135.863281 77.996094 109.851562 72.253906 C 87.203125 67.246094 65.738281 65.742188 48.222656 68.265625 C 31.179688 70.722656 17.996094 76.996094 11.40625 87.59375 C 9.613281 90.480469 8.300781 93.6875 7.519531 97.226562 C 5.917969 104.460938 6.933594 110.597656 9.878906 115.738281 C 14.582031 123.949219 24.285156 129.855469 36.378906 133.824219 C 48.820312 137.910156 63.703125 139.925781 78.355469 140.277344 C 79.386719 140.300781 80.4375 140.316406 81.476562 140.332031 C 100.433594 130.457031 128.117188 125.421875 142.128906 127.402344 L 147.460938 128.15625 L 143.636719 131.945312 C 135.21875 140.277344 109.746094 145.707031 82.78125 145.671875 C 78.257812 148.132812 74.332031 150.871094 71.382812 153.871094 C 68.402344 156.894531 66.457031 160.140625 65.976562 163.550781 C 65.601562 166.179688 66.097656 168.976562 67.644531 171.941406 C 73.84375 183.804688 88.777344 186.683594 106.152344 182.480469 C 117.613281 179.714844 130.0625 173.894531 141.851562 165.554688 C 153.671875 157.183594 164.8125 146.261719 173.59375 133.328125 Z M 133.457031 132.316406 C 122.765625 132.5625 108.429688 135.277344 95.617188 139.957031 C 111.125 139 124.941406 136.265625 133.457031 132.316406 Z M 241.894531 147.117188 C 235.230469 138.4375 227.121094 130.167969 217.710938 122.453125 C 208.296875 130.167969 200.1875 138.4375 193.523438 147.117188 C 192.117188 148.945312 190.773438 150.796875 189.496094 152.671875 C 189.496094 152.671875 189.496094 152.671875 189.5 152.671875 L 245.921875 152.671875 C 244.644531 150.796875 243.304688 148.945312 241.894531 147.117188 Z M 186.042969 158.015625 C 181.164062 166.046875 177.5 174.347656 175.144531 182.789062 L 260.277344 182.789062 C 257.929688 174.347656 254.257812 166.046875 249.378906 158.015625 Z M 173.828125 188.140625 C 173.152344 191.339844 172.667969 194.550781 172.378906 197.769531 C 172.128906 200.546875 172.019531 203.335938 172.054688 206.125 L 263.367188 206.125 C 263.40625 203.335938 263.300781 200.546875 263.042969 197.769531 C 262.753906 194.550781 262.265625 191.339844 261.59375 188.140625 Z M 172.316406 211.480469 C 173.011719 219.972656 175.097656 228.492188 178.660156 236.941406 L 256.761719 236.941406 C 260.320312 228.492188 262.410156 219.972656 263.101562 211.480469 Z M 325.574219 72.253906 C 299.5625 77.996094 272.039062 88.347656 247.183594 102.476562 C 250.429688 113.683594 255.519531 124.035156 261.832031 133.328125 C 270.605469 146.261719 281.746094 157.183594 293.574219 165.554688 C 305.355469 173.894531 317.816406 179.714844 329.265625 182.480469 C 346.644531 186.683594 361.585938 183.804688 367.78125 171.941406 C 369.332031 168.976562 369.816406 166.179688 369.449219 163.550781 C 368.960938 160.140625 367.015625 156.894531 364.042969 153.871094 C 361.097656 150.871094 357.167969 148.132812 352.636719 145.671875 C 325.683594 145.707031 300.203125 140.277344 291.789062 131.945312 L 287.960938 128.15625 L 293.289062 127.402344 C 307.308594 125.421875 334.992188 130.457031 353.945312 140.332031 C 354.984375 140.316406 356.03125 140.300781 357.070312 140.277344 C 371.726562 139.925781 386.609375 137.910156 399.050781 133.824219 C 411.140625 129.855469 420.835938 123.949219 425.539062 115.738281 C 428.492188 110.597656 429.5 104.460938 427.898438 97.226562 C 427.125 93.6875 425.808594 90.480469 424.015625 87.59375 C 417.421875 76.996094 404.25 70.722656 387.199219 68.265625 C 369.679688 65.742188 348.214844 67.246094 325.574219 72.253906 Z M 301.96875 132.316406 C 310.480469 136.265625 324.304688 139 339.796875 139.957031 C 326.988281 135.277344 312.652344 132.5625 301.96875 132.316406 Z M 231.609375 33.21875 C 227.773438 29.375 222.480469 27 216.628906 27 C 210.769531 27 205.472656 29.375 201.636719 33.21875 C 197.800781 37.058594 195.429688 42.363281 195.429688 48.226562 C 195.429688 54.085938 197.800781 59.390625 201.636719 63.230469 C 205.472656 67.070312 210.769531 69.441406 216.628906 69.441406 C 222.480469 69.441406 227.773438 67.070312 231.609375 63.230469 C 235.449219 59.390625 237.816406 54.085938 237.816406 48.226562 C 237.816406 42.363281 235.449219 37.058594 231.609375 33.21875 " fill-opacity="1" fill-rule="nonzero"/></g></svg>